<?xml version="1.0" encoding="utf-8"?>
<!-- Generator: Adobe Illustrator 26.3.1, SVG Export Plug-In . SVG Version: 6.00 Build 0)  -->
<svg version="1.1" id="Layer_1" xmlns="http://www.w3.org/2000/svg" xmlns:xlink="http://www.w3.org/1999/xlink" x="0px" y="0px"
	 viewBox="0 0 750 500" style="enable-background:new 0 0 750 500;" xml:space="preserve">
<style type="text/css">
	.st0{fill:#F5F5F5;}
	.st1{fill:#263238;}
	.st2{fill:#455A64;}
	.st3{fill:#E0E0E0;}
	.st4{fill:#FF725E;}
	.st5{fill:#FFBE9D;}
	.st6{fill:#FAFAFA;}
	.st7{opacity:0.3;enable-background:new    ;}
	.st8{opacity:0.5;fill:#FFFFFF;enable-background:new    ;}
	.st9{fill:#EB996E;}
	.st10{opacity:0.3;}
	.st11{opacity:0.2;}
	.st12{fill:#FFFFFF;}
	.st13{opacity:0.4;}
	.st14{opacity:0.7;}
	.st15{fill:#B78876;}
	.st16{fill:#AA6550;}
</style>
<g id="freepik--background-simple--inject-87">
	<path class="st0" d="M649.4,236.1c-11.7-34.8-44.9-62.6-81.5-63.4c-46.9-1-89,39.1-135.5,32.7c-26.9-3.7-49.2-22.6-67-43.2
		s-32.7-43.8-53.5-61.2C273,68.2,215,60.2,168.7,81.2S90.1,151,89,201.9s8.9,109.5,52.7,143.2l22.1,16.2
		c44.6,32.8,97.2,53,152.3,58.6c23.5,2.4,43.7,6.8,66.9,7.4c56.2,1.5,113.8,3.9,165.3-18.5c33.6-14.6,64.7-37,84.8-67.6
		S661.1,270.8,649.4,236.1z"/>
</g>
<g id="freepik--Table--inject-87">
	<path class="st1" d="M681.3,468.8c0,0.1-137.1,0.3-306.2,0.3s-306.3-0.1-306.3-0.3s137.1-0.3,306.3-0.3S681.3,468.6,681.3,468.8z"
		/>
</g>
<g id="freepik--character-3--inject-87">
	<path class="st1" d="M553.3,351.6c1-0.2,9.2,37.2,8.1,51.7s-8.1,65-8.1,65h-33.6l-6.1-71.5l1.2,71.5h-45.2c0,0-10.5-49.1-8.6-64
		s11.8-54,11.8-54L553.3,351.6z"/>
	<path class="st2" d="M517,360.2c0.1,0.5,0.1,0.9,0.1,1.4c0,0.9,0,2.2,0,3.8c-0.1,3.2-0.3,7.7-0.7,12.5s-1,9.3-1.4,12.5
		c-0.2,1.6-0.4,2.9-0.6,3.8c-0.1,0.5-0.2,0.9-0.3,1.4c0-0.5,0-0.9,0.1-1.4c0.1-1,0.3-2.3,0.4-3.8c0.4-3.2,0.9-7.6,1.3-12.5
		s0.7-9.3,0.8-12.5c0.1-1.5,0.2-2.8,0.2-3.8C516.9,361.1,516.9,360.7,517,360.2z"/>
	<path class="st2" d="M523.1,363.2c0,0,0.3-0.1,0.8,0c0.7,0.1,1.3,0.5,1.8,1c0.3,0.4,0.5,0.8,0.7,1.3c0.1,0.6,0.1,1.1-0.1,1.7
		c-0.5,1.2-1.7,2.1-3,2.1c-1.3-0.1-2.5-1-2.9-2.2c-0.2-0.5-0.2-1.1-0.1-1.7c0.1-0.5,0.4-0.9,0.7-1.2c0.5-0.5,1.1-0.8,1.8-0.9
		c0.3,0,0.5,0,0.7,0.1c0,0-0.3,0-0.7,0c-0.6,0.1-1.2,0.4-1.6,0.9c-0.6,0.7-0.8,1.7-0.5,2.5c0.4,1.1,1.4,1.8,2.5,1.9
		c1.1,0,2.1-0.7,2.6-1.8c0.3-0.9,0.2-1.8-0.4-2.6c-0.4-0.5-0.9-0.9-1.5-1.1C523.3,363.3,523.1,363.3,523.1,363.2z"/>
	<path class="st2" d="M558.3,369.5c-0.3,0.2-0.6,0.3-0.9,0.3c-0.8,0.2-1.7,0.4-2.5,0.5c-5.8,0.5-11.4-2.1-14.7-7
		c-0.5-0.7-0.9-1.4-1.2-2.2c-0.1-0.3-0.3-0.6-0.3-0.9c0.1,0,0.6,1.2,1.8,2.9c3.3,4.6,8.7,7.1,14.4,6.8
		C557,369.8,558.3,369.4,558.3,369.5z"/>
	<path class="st1" d="M481.4,190.3c-2.5,9.3-6.4,16.7-10.2,20.5s-7.8,8.1-7.6,13.4c0,2.1,0.7,4.3-0.2,6.2c-1.2,2.4-4.3,3-6.7,4.3
		c-3.5,2.2-5.5,6-5.3,10.1c0.3,4,2.1,7.8,5,10.6c2.9,2.9,7.6,5,11.2,3c2.2-1.2,3.4-3.6,4.5-5.8c5.7-11.7,10.9-23.6,15.6-35.7"/>
	<path class="st1" d="M504.9,150.6c8.8-9.8,24-10.6,33.8-1.7c5.1,4.6,8,11.1,7.9,18c-0.1,6.2-2.5,12.7,0,18.4
		c1.7,4,5.8,7.1,6.3,11.5c0.7,5.1-3.7,9.6-3.5,14.7c0.2,3.3,2.2,6.3,4.6,8.6s5.2,4.2,7.4,6.7c6.1,6.9,6.5,17.9,1.9,25.9
		s-13.5,13.1-22.7,14.1s-18.6-1.4-26.7-5.8c-5.3-2.9-10.3-6.7-13.4-11.8s-4.2-11.8-1.7-17.3"/>
	<path class="st3" d="M524.4,228c0,0,20.7,6.1,22.8,9.4s8.5,41.8,8.5,41.8L543,324.6c0,0,10.5,17,11,25.5
		c-23.5,15.2-50.1,10.9-77.9-1.2l-2-44.4l-2.6-70.9l17.1-6L524.4,228z"/>
	<path class="st4" d="M547.5,333.8c-0.3,0-0.5,0-0.8,0l-2.2-0.1l-8-0.6l-26.4-2.3l-26.4-2.5l-8-0.8l-2.2-0.2c-0.3,0-0.5-0.1-0.8-0.1
		c0.3,0,0.5,0,0.8,0l2.2,0.1l8,0.6l26.4,2.3l26.4,2.5l8,0.8l2.2,0.2C547,333.7,547.2,333.7,547.5,333.8z"/>
	<path class="st4" d="M523.1,283.8c0,0.1-9.1,0.3-20.4,0.3s-20.4-0.1-20.4-0.3s9.1-0.3,20.4-0.3S523.1,283.6,523.1,283.8z"/>
	<path class="st4" d="M550.5,253.3c-0.5,0.1-1.1,0.2-1.6,0.2l-4.4,0.2c-3.7,0.2-8.9,0.5-14.5,0.9s-10.8,0.9-14.5,1.3l-4.4,0.4
		c-0.5,0.1-1.1,0.1-1.6,0.1c0.5-0.1,1.1-0.2,1.6-0.3c1-0.2,2.5-0.4,4.4-0.6c3.7-0.5,8.8-1,14.5-1.4s10.8-0.7,14.6-0.8
		c1.9,0,3.4-0.1,4.4-0.1C549.5,253.3,550,253.3,550.5,253.3z"/>
	<path class="st3" d="M547.2,237.4l20.8,56.5l14-27.8l18.3,3.7l-10.5,43.9c-1.1,7.8-7,14.1-14.8,15.6l0,0
		c-6.4,1.3-13.1-0.8-17.5-5.7l-6.5-7.2L547.2,237.4z"/>
	<path class="st4" d="M567.6,329.6c-0.1-0.5-0.1-0.9-0.2-1.4c-0.1-0.9-0.1-2.2-0.2-3.9c-0.1-3.3-0.2-7.8,0-12.8s0.5-9.5,0.8-12.8
		c0.2-1.6,0.3-3,0.4-3.9c0-0.5,0.1-0.9,0.2-1.4c0.1,0.5,0.1,0.9,0,1.4c-0.1,1-0.1,2.3-0.2,3.9c-0.2,3.3-0.5,7.8-0.6,12.8
		s-0.2,9.5-0.1,12.8c0,1.6,0,2.9,0,3.9C567.7,328.6,567.6,329.1,567.6,329.6z"/>
	<path class="st4" d="M594.5,295.1c0,0.1-5.2-1.7-11.4-4.1s-11.3-4.4-11.2-4.5s5.2,1.7,11.4,4.1S594.5,295,594.5,295.1z"/>
	<polygon class="st5" points="604.6,263.4 595.8,269.8 586.1,267.4 588.5,264.9 	"/>
	<polygon class="st6" points="636.3,184.8 565.4,215.5 565.8,236 557.7,244.4 584.8,268.6 592.7,259.8 613.8,256.8 	"/>
	<path class="st1" d="M636.3,184.8c-0.6,2-9.2,29.7-22.3,72.1v0.1h-0.2l-21.1,3l0.2-0.1l-8,8.8l-0.2,0.2l-0.2-0.2l-13.8-12.4
		l-13.2-11.9l-0.2-0.2l0.2-0.2l8-8.4l-0.1,0.2c-0.1-7.1-0.2-14-0.3-20.5v-0.2l0.2-0.1L636.3,184.8l-70.8,30.9l0.1-0.2
		c0.1,6.6,0.2,13.4,0.4,20.5v0.1l-0.1,0.1l-8,8.4v-0.4l13.3,11.8l13.8,12.4h-0.4l7.9-8.8l0.1-0.1h0.1l21.1-2.9l-0.2,0.2
		C626.9,214.4,635.6,186.8,636.3,184.8z"/>
	<path class="st1" d="M607.5,235.1c-4.1,4.6-11.1,5-15.7,0.9c-4.6-4.1-5-11.1-0.9-15.7c4.1-4.6,11.1-5,15.7-0.9c0,0,0,0,0,0
		C611.2,223.5,611.6,230.5,607.5,235.1z"/>
	<path class="st1" d="M636.3,184.8c0.1,0.1-8.1,9.8-18.3,21.6s-18.6,21.4-18.7,21.3s8.1-9.8,18.3-21.6S636.2,184.7,636.3,184.8z"/>
	<path class="st4" d="M418,429.7L418,429.7c-7.3-6.5-7.9-17.6-1.5-24.9l133.2-150.8l26.4,23.6L443,428.2
		C436.5,435.5,425.3,436.2,418,429.7z"/>
	
		<rect x="560.7" y="239.7" transform="matrix(0.6664 -0.7456 0.7456 0.6664 -4.7743 510.4004)" class="st4" width="14.5" height="41.7"/>
	
		<rect x="631.8" y="181.3" transform="matrix(0.6423 -0.7665 0.7665 0.6423 85.5003 553.4669)" class="st4" width="7.7" height="7.7"/>
	<path class="st4" d="M684.5,224.8c-0.3,0.3-22.9-18.2-50.5-41.4s-49.8-42.2-49.6-42.5s22.9,18.2,50.5,41.4S684.8,224.5,684.5,224.8
		z"/>
	<path class="st4" d="M685.7,225.7c-0.8,1-2.3,1.1-3.2,0.3c-1-0.8-1.1-2.3-0.3-3.2c0.8-1,2.2-1.1,3.2-0.3
		C686.4,223.3,686.5,224.7,685.7,225.7C685.7,225.7,685.7,225.7,685.7,225.7z"/>
	<path class="st4" d="M586.2,142.4c-0.8,1-2.3,1.1-3.2,0.3c-1-0.8-1.1-2.3-0.3-3.2c0.8-1,2.3-1.1,3.2-0.3c0,0,0,0,0,0
		C586.9,140,587,141.4,586.2,142.4z"/>
	<polygon class="st7" points="549.7,253.9 576.2,277.6 572.6,281.6 548.5,255.4 	"/>
	<polygon class="st8" points="565.8,248.9 565.8,267.8 569.6,271.7 569.6,252.3 	"/>
	<path class="st5" d="M597.5,240.1l9.7,3.9l2.1,7.8l-4.7,11.6l-17.1,2.5l5-5.1l-0.7-4.5c0,0-4.8-1.5-4.9-2.2s0.6-3.2,1.3-3.3
		s5.8,1.8,5.8,1.8s-5.9-4.7-5.8-5.4s0.8-2.7,2-2.9s10.8,4.3,10.8,4.3l1.5,3.6l1.4-5.7C603.9,246.3,595.4,243.9,597.5,240.1z"/>
	<path class="st9" d="M596.3,258.4c0.1,0,0.2-0.3,0.3-1c0.1-0.8,0-1.7-0.3-2.4c-0.3-0.8-0.8-1.5-1.4-2.1c-0.5-0.4-0.8-0.6-0.9-0.5
		c0.7,0.8,1.3,1.7,1.8,2.7C596.2,256.2,596.3,257.3,596.3,258.4z"/>
	<path class="st9" d="M600.9,256.7c-0.2-0.8-0.3-1.7-0.4-2.5c0-1-0.2-1.9-0.5-2.8c-0.2-0.6-0.5-1.1-0.9-1.5c-0.5-0.4-1-0.8-1.6-1
		c-2.3-0.8-4.4-1.5-5.9-2c-0.8-0.3-1.6-0.5-2.5-0.7c0.8,0.4,1.6,0.7,2.4,1c1.5,0.6,3.6,1.3,5.9,2.1c0.5,0.2,1,0.5,1.4,0.9
		c0.4,0.4,0.6,0.8,0.8,1.3c0.3,0.9,0.5,1.8,0.6,2.7C600.2,255.1,600.4,255.9,600.9,256.7z"/>
	<path class="st9" d="M603.1,254.9c0.1-0.6,0.1-1.3-0.1-1.9c-0.2-1-0.4-1.9-0.5-1.8s-0.1,0.9,0.1,1.9S603,255,603.1,254.9z"/>
	<path class="st5" d="M530.3,324.2c0,0,15.5-5.3,15.9-5.5s11-5.1,10.1-8c0,0,3-2.4,2.1-3.7l-4.3,1.8c0,0,6-3.9,5-7.4
		c0,0,0.6-1.2,0-1.9s-3.8,1.5-6.1,2.9l-4.5,1.8c-2,0.8-4.1,0.9-6.1,0.3l0,0c-1-0.3-1.5-1.3-1.3-2.3c0.8-3.5,0.7-7.1-0.3-10.5
		c0,0-1.1,0.4-1.9,2.8c-1,3.1-4,5.4-5.2,7.5c-0.6,1.2-1.7,3-2.4,4.4c-0.6,1.1-1.7,2-2.9,2.3l1.1,8.1L530.3,324.2z"/>
	<path class="st9" d="M547.2,309.5c0.2,0,0.4-0.1,0.5-0.2c0.3-0.1,0.8-0.3,1.4-0.6c1.5-0.7,3-1.5,4.4-2.4c1.4-0.9,2.7-1.9,4-3.1
		c0.5-0.4,0.9-0.8,1.1-1.1c0.1-0.1,0.3-0.3,0.4-0.4c-0.2,0.1-0.3,0.2-0.4,0.4l-1.2,1c-1.3,1.1-2.6,2.1-4,3c-1.4,0.9-2.9,1.7-4.4,2.5
		l-1.4,0.6C547.5,309.4,547.4,309.4,547.2,309.5z"/>
	<path class="st9" d="M547.5,312.6c0.4-0.1,0.8-0.2,1.2-0.4c0.9-0.4,1.8-0.8,2.6-1.3c0.8-0.5,1.6-1,2.4-1.6c0.3-0.2,0.6-0.5,0.9-0.8
		c0-0.1-1.5,1-3.5,2.2c-1,0.6-1.9,1-2.5,1.4C548.2,312.3,547.8,312.4,547.5,312.6z"/>
	<path class="st9" d="M547.3,316.4c0.5-0.1,1-0.3,1.5-0.6c1.1-0.5,2.3-1.1,3.3-1.8c1.1-0.7,2.1-1.4,3.1-2.2c0.4-0.3,0.8-0.7,1.2-1.1
		c-0.4,0.3-0.9,0.6-1.3,0.9c-0.8,0.6-1.8,1.4-3.1,2.1c-1.1,0.7-2.1,1.3-3.3,1.9C548.3,315.9,547.8,316.1,547.3,316.4z"/>
	<path class="st3" d="M530.3,324.2l-57.7,17.4c-13.3-6-21.4-19.9-20.1-34.4c1.8-20.4,4.2-47.2,4.9-54c1.2-11.2,14.1-19.5,14.1-19.5
		c17.7,1.1,13.8,36.2,13.8,36.2l-7.1,40.3l50.2-2L530.3,324.2z"/>
	<path class="st1" d="M478.2,310.1c0-0.5,0-1.1,0.1-1.6c0.1-1,0.2-2.5,0.5-4.4c0.5-3.7,1.2-8.7,2.3-14.3s2.1-10.6,2.9-14.2
		c0.4-1.8,0.8-3.3,1-4.3c0.1-0.5,0.2-1,0.5-1.5c0,0.5-0.1,1.1-0.2,1.6c-0.2,1.1-0.5,2.6-0.8,4.3c-0.7,3.6-1.7,8.6-2.7,14.2
		s-1.9,10.6-2.4,14.2c-0.2,1.8-0.5,3.2-0.6,4.3C478.4,309,478.3,309.6,478.2,310.1z"/>
	<path class="st1" d="M528.3,308.1c-0.2,0.1-0.4,0.1-0.5,0.1l-1.6,0.1c-1.4,0.1-3.3,0.2-5.8,0.4c-4.9,0.2-11.6,0.5-19.1,0.7
		l-19.1,0.5l-5.8,0.2h-1.6c-0.2,0-0.4,0-0.5,0c0.2-0.1,0.4-0.1,0.5-0.1l1.6-0.1c1.4-0.1,3.3-0.2,5.8-0.4c4.9-0.2,11.6-0.5,19.1-0.7
		l19.1-0.5l5.8-0.2h1.6C528,308.1,528.2,308.1,528.3,308.1z"/>
	<path class="st4" d="M480.4,294.8c-0.4,0-0.7,0-1.1,0l-2.9-0.2c-2.4-0.2-5.8-0.4-9.5-0.6s-7.1-0.2-9.5-0.2h-2.9
		c-0.4,0-0.7,0-1.1-0.1c0.3-0.1,0.7-0.1,1-0.1c0.7-0.1,1.7-0.1,2.9-0.1c2.4-0.1,5.8-0.1,9.5,0.1s7.1,0.4,9.5,0.7
		c1.2,0.1,2.2,0.3,2.9,0.4C479.6,294.7,480,294.7,480.4,294.8z"/>
	<path class="st4" d="M485.3,267c0,0.1-6.5,0-14.6-0.4s-14.6-0.7-14.6-0.9s6.5,0,14.6,0.4S485.3,266.9,485.3,267z"/>
	<path class="st4" d="M457.9,328.3c0.1-0.3,0.3-0.6,0.5-0.9c0.4-0.6,1-1.4,1.7-2.4c2-2.5,4.2-4.9,6.6-7.1c2.4-2.2,5-4.2,7.7-5.9
		c1-0.7,1.9-1.2,2.5-1.5c0.3-0.2,0.6-0.4,1-0.5c0,0.1-1.3,0.9-3.3,2.3c-5.3,3.7-10,8-14.2,12.9C458.9,327.1,458,328.3,457.9,328.3z"
		/>
	<path class="st4" d="M499.3,333.8c-0.1,0-1.1-5.4-2.2-12.1s-1.8-12.2-1.7-12.2s1.1,5.4,2.2,12.1S499.5,333.8,499.3,333.8z"/>
	<g class="st10">
		<path d="M472.3,341.6l64.6-19.6c-4.8,6.4-14.3,12.3-21.4,16s-14.7,6.3-22.3,8.8c-4.1,1.4-8.3,2.8-12.7,2.8s-8.6-1.3-10.9-5
			L472.3,341.6z"/>
	</g>
	<path class="st1" d="M483.4,175.4c1.2-2.9,0.2-6.3-2.4-8.1c-2.6-1.7-6.1-1.5-8.6,0.4c-2.4,2-3.3,5.3-2.5,8.3
		c1.3,4.3,5.8,6.7,10.1,5.4c3-0.9,5.2-3.5,5.7-6.6"/>
	<path class="st5" d="M493.1,158.5v4.7l-1,70.7c-0.1,8.2,6.9,14.9,15.6,14.9l0,0c8.9,0.1,16.3-6.6,16.5-14.9
		c0.3-8.7,0.7-17.9,0.7-17.9s11.3-1.6,14-16.1c1.4-7.2,1.3-19.2,1-29c-0.3-8.5-7.4-15.2-16-14.9c-0.2,0-0.4,0-0.7,0L493.1,158.5z"/>
	<path class="st1" d="M534.9,179.6c0,1-0.8,1.8-1.9,1.8c-1,0.1-1.8-0.7-1.9-1.7c0,0,0,0,0,0c0-1,0.8-1.8,1.9-1.8
		C534,177.8,534.9,178.5,534.9,179.6C534.9,179.5,534.9,179.5,534.9,179.6z"/>
	<path class="st1" d="M537.1,177.2c-0.2,0.2-1.6-0.9-3.7-0.9s-3.5,0.9-3.7,0.7s0.1-0.6,0.8-1c0.9-0.6,1.9-0.9,3-0.8
		c1,0,2.1,0.4,2.9,1C537,176.6,537.2,177.1,537.1,177.2z"/>
	<path class="st1" d="M515.2,179.4c0,1-0.8,1.8-1.9,1.9c-1,0.1-1.8-0.7-1.9-1.7c0,0,0,0,0,0c0-1,0.8-1.8,1.9-1.8
		C514.3,177.6,515.1,178.3,515.2,179.4C515.2,179.3,515.2,179.3,515.2,179.4z"/>
	<path class="st1" d="M517.3,177c-0.2,0.2-1.6-0.9-3.7-0.9s-3.5,0.9-3.7,0.7s0.1-0.6,0.8-1c0.9-0.6,1.9-0.9,3-0.8c1,0,2.1,0.4,2.9,1
		C517.2,176.4,517.4,176.9,517.3,177z"/>
	<path class="st1" d="M524.2,192.2c1.1-0.3,2.2-0.5,3.3-0.5c0.5,0,1-0.1,1.1-0.5c0.1-0.5-0.1-1.1-0.3-1.5l-1.4-4
		c-2-5.6-3.4-10.3-3.1-10.4s2,4.4,4,10.1c0.5,1.4,0.9,2.7,1.4,4c0.3,0.6,0.4,1.3,0.2,2c-0.2,0.4-0.5,0.6-0.9,0.7
		c-0.3,0.1-0.6,0.1-0.9,0.1C526.4,192.3,525.3,192.3,524.2,192.2z"/>
	<path class="st9" d="M524.9,216.1c-6.9-0.1-13.6-2.1-19.4-5.8c0,0,4.5,10.2,19.2,9.2L524.9,216.1z"/>
	<path class="st9" d="M523.2,197c-0.8-1-2-1.5-3.2-1.4c-0.9,0.1-1.7,0.5-2.3,1.2c-0.6,0.7-0.7,1.6-0.2,2.4c0.6,0.8,1.7,1.1,2.6,0.7
		c1-0.3,1.9-0.8,2.6-1.5c0.2-0.2,0.4-0.4,0.6-0.6C523.4,197.6,523.4,197.3,523.2,197"/>
	<path class="st1" d="M518.2,193.4c0.3,0,0.3,2.2,2.1,3.8s4.2,1.4,4.2,1.7c0,0.1-0.5,0.4-1.5,0.4c-1.3,0-2.5-0.5-3.5-1.3
		c-0.9-0.8-1.5-1.9-1.6-3.2C517.8,193.9,518.1,193.4,518.2,193.4z"/>
	<path class="st1" d="M518,169.1c-0.2,0.5-2.2,0.2-4.6,0.4s-4.3,0.8-4.6,0.3c-0.1-0.2,0.2-0.8,1-1.3c1-0.6,2.2-1,3.5-1.1
		c1.2-0.1,2.4,0.1,3.6,0.5C517.7,168.4,518.1,168.9,518,169.1z"/>
	<path class="st1" d="M536.5,171.3c-0.4,0.4-1.8-0.1-3.4-0.1s-3.1,0.2-3.4-0.3c-0.1-0.2,0.1-0.7,0.7-1.1c1.7-1,3.9-0.9,5.5,0.3
		C536.5,170.6,536.7,171.1,536.5,171.3z"/>
	<path class="st1" d="M511.5,153.9c3.9,5.2-0.2,12.6-4.7,17.2s-10,10.1-8.8,16.5c1.4,7.4,11.5,12.1,10,19.5c-0.5,2.7-2.7,5-2.7,7.7
		c0,5,6.4,7.4,8.3,12c2.5,6.3-4.4,12.6-4.5,19.4c-0.1,3.9,2.1,7.5,2.2,11.3c0.2,7.9-9.1,13.7-16.8,11.8s-12.9-9.5-14.6-17.2
		s0.9-18.6,2.1-26.4l-13.3,3.1c-2.5-2.4,0.9-4.9,1.5-8.2c1.4-8.5,7-15.6,9.6-23.8c2.3-7.1,2.3-14.8,3.3-22.2s3.3-15.2,9-20.1
		s15.5-5.5,20.1,0.4"/>
	<path class="st2" d="M481.7,177.9c1.9,0.3,3.9,0.4,5.9,0.2c4.7-0.7,9.1-2.7,12.7-5.8c3.6-3.1,6.7-6.7,9.3-10.7
		c1-1.4,1.8-2.7,2.4-3.6c0.3-0.5,0.6-0.9,0.9-1.3c-0.2,0.5-0.5,1-0.8,1.4c-0.5,0.9-1.3,2.1-2.3,3.7c-2.5,4.1-5.7,7.7-9.3,10.9
		c-3.7,3.2-8.2,5.1-13,5.7c-1.5,0.1-2.9,0.1-4.4-0.1c-0.4-0.1-0.8-0.1-1.1-0.2C481.8,178,481.6,177.9,481.7,177.9z"/>
	<path class="st2" d="M499,179.9c-0.6,0.6-1.3,1.1-2.1,1.5c-1.9,1-3.9,1.7-6,2c-2.1,0.3-4.2,0.2-6.3-0.2c-0.9-0.1-1.7-0.4-2.5-0.8
		c0-0.1,1,0.2,2.5,0.4c4.1,0.6,8.3,0,12-1.8C498.1,180.4,498.9,179.8,499,179.9z"/>
	<path class="st2" d="M546.5,170.1c-3.3,0-6.3-1.7-7.8-4.6c1.1,1.1,2.2,2.1,3.5,3C543.6,169.1,545.1,169.7,546.5,170.1z"/>
	<path class="st2" d="M545.6,175c-1.8,0.6-3.9,0.1-5.2-1.3c0.1-0.1,1.1,0.5,2.5,0.9S545.6,174.8,545.6,175z"/>
	<path class="st4" d="M482.8,181.1c-0.5-1.6-0.7-3.2-0.4-4.8c0.1-1.6,0.5-3.2,1.3-4.7c0.1,0.1-0.5,2.1-0.7,4.7
		S482.9,181.1,482.8,181.1z"/>
</g>
<g id="freepik--character-2--inject-87">
	<path class="st1" d="M344.5,349.9c-1-0.2-9.1,37.7-8,52.5s8,66,8,66h82.9c0,0,10.4-49.9,8.5-65s-11.7-54.8-11.7-54.8L344.5,349.9z"
		/>
	<path class="st5" d="M333.9,278.2l-11.9-53.4l-0.7-8.8c0,0-2.7-19.8-2.7-21.7c0-2.2-1.1-2.8-1.9-2.7c-1.3,0.1-2.2,1.7-2.2,3.6
		c0,0.7,0.2,11.1,0.2,11.1c-0.6-1-1.3-1.9-2.1-2.8c-1.6-1.9-5.2-3-9-2.9s-4.8,0.5-4.8,2c0,0.6,0.3,1.1,0.8,1.4
		c0.7,0.6,1.6,0.9,2.5,0.8c6-0.2,7.6,3,7.6,3l0.1,1.1c0,0-3.7-2.6-6.5-1.4c-0.4,0.2-0.8,0.4-1.1,0.7c-2.6,0-4.7,2.2-4.6,4.8
		c0,0.8,0.2,1.5,0.6,2.2c0.3,0.7,1.1,1.2,1.9,1.1c0.4-0.1,0.8-0.4,1-0.7c0.2-0.1,0.3-0.3,0.5-0.4l0.7,3.2c0,0,2,7.1,2.5,10.3
		l3.2,52.9c0.4,7.2,6.7,12.8,13.9,12.3c0.1,0,0.1,0,0.2,0l0,0c7.2-0.6,12.6-6.9,12.1-14.1C334.2,279.5,334.1,278.9,333.9,278.2z"/>
	<path class="st5" d="M320.4,224.2c-1.2,0.2-2.3-0.4-2.8-1.4c-0.6-1-0.9-2.1-1.4-3.1c-1.6-3-5.4-4.4-6.8-7.5c-0.2-0.4-0.3-1,0.1-1.3
		s0.9-0.1,1.2,0.1l9.9,5.4"/>
	<path class="st9" d="M320.5,216.3c-0.3-0.3-0.6-0.5-1-0.7c-0.7-0.4-1.7-1-2.9-1.7l-4.3-2.4l-1.2-0.7c-0.5-0.4-1-0.5-1.6-0.4
		c-0.4,0.1-0.6,0.5-0.6,0.9c0,0.3,0,0.6,0.2,0.9c0.2,0.5,0.5,1,0.9,1.4c1.4,1.8,3.2,2.9,4.5,4.1c0.6,0.6,1.2,1.3,1.6,2
		c0.4,0.7,0.6,1.4,0.9,2.1c0.4,1.1,1.2,2,2.3,2.4c0.8,0.2,1.3,0,1.2-0.1c-0.4,0-0.8,0-1.2-0.2c-1-0.5-1.7-1.3-2-2.4
		c-0.3-0.7-0.5-1.4-0.9-2.1c-0.4-0.8-1-1.5-1.6-2.2c-1.3-1.4-3.1-2.5-4.4-4.1c-0.3-0.4-0.6-0.8-0.8-1.3c-0.2-0.4-0.2-0.9,0.1-0.9
		s0.7,0.2,1.1,0.4l1.3,0.7l4.4,2.3c1.2,0.6,2.3,1.1,3,1.5C319.8,216.1,320.1,216.2,320.5,216.3z"/>
	<path class="st9" d="M310,209.1c-0.1-0.7-0.3-1.4-0.7-2c-0.5-0.6-1.1-1.1-1.8-1.3c-0.9-0.3-1.9-0.4-2.8-0.4c-1,0-2-0.1-3-0.2
		c-0.8-0.2-1.6-0.5-2.2-1.1c-0.4-0.4-0.7-1-0.6-1.6c0-0.2,0.1-0.4,0.2-0.6c0,0,0,0.2,0,0.6c0,0.5,0.2,1,0.6,1.3
		c0.6,0.5,1.3,0.8,2.1,0.9c1,0.1,1.9,0.2,2.9,0.2c1,0,2,0.1,3,0.4c0.8,0.3,1.5,0.8,2,1.5c0.3,0.5,0.5,1,0.5,1.6
		C310.1,208.9,310,209.1,310,209.1z"/>
	<path class="st9" d="M314.5,194.5c0.1,0.7,0.1,1.4,0.1,2.1v5c0,1.9,0,3.6,0.1,5c0.1,0.7,0.1,1.4,0,2.1c-0.2-0.7-0.3-1.4-0.3-2.1
		c-0.1-1.3-0.2-3.1-0.2-5s0-3.7,0.1-5C314.3,195.9,314.4,195.2,314.5,194.5z"/>
	<path class="st9" d="M307.6,211.5c-0.2,0-0.4-0.1-0.6-0.2c-0.5-0.2-1.1-0.3-1.6-0.1c-0.3,0.2-0.5,0.5-0.5,0.9c0,0.5,0,0.9,0.1,1.4
		c0.1,0.6,0,1.1-0.2,1.6c-0.4,0.5-1,0.8-1.6,0.8c-0.6,0-1.2-0.2-1.6-0.7c-0.4-0.4-0.7-0.9-0.8-1.4c-0.1-0.9-0.1-1.8,0-2.7
		c0.1-0.6,0.2-1.2,0.5-1.7c0.2-0.4,0.4-0.5,0.4-0.5s-0.1,0.2-0.3,0.6c-0.2,0.5-0.3,1.1-0.4,1.7c-0.1,0.9-0.1,1.7,0.1,2.6
		c0.2,1,1,1.7,2,1.8c0.5,0,1-0.3,1.3-0.7c0.2-0.4,0.3-0.9,0.2-1.4c-0.1-0.5-0.1-1-0.1-1.4c0-0.5,0.3-0.9,0.7-1.1
		c0.6-0.2,1.3-0.2,1.8,0.2C307.5,211.4,307.7,211.5,307.6,211.5z"/>
	<path class="st9" d="M301.7,214.9c0,0,0.1,0.2-0.1,0.6c-0.2,0.5-0.6,0.9-1.2,1.1c-0.8,0.2-1.7-0.1-2.3-0.7
		c-0.7-0.7-1.1-1.7-1.1-2.8c0-1,0.3-2,0.9-2.8c0.5-0.7,1.1-1.2,1.9-1.5c0.5-0.2,1-0.4,1.6-0.4c0.2,0,0.4,0,0.6,0.1
		c-0.7,0.1-1.4,0.3-2,0.6c-0.7,0.3-1.2,0.8-1.7,1.5c-0.5,0.8-0.8,1.7-0.8,2.6c0,0.9,0.3,1.8,0.9,2.5c0.5,0.6,1.3,0.8,2,0.7
		c0.5-0.1,0.9-0.4,1.1-0.9C301.7,215.1,301.7,214.9,301.7,214.9z"/>
	<path class="st9" d="M309,221.9c0.3-0.1,0.7-0.1,1,0c0.9,0.2,1.6,0.6,2.2,1.3l-0.4,0.1c0-0.5,0.1-0.9,0.2-1.4
		c0.3-1.6,1-3.1,2.1-4.4c-0.7,1.4-1.3,2.9-1.7,4.5c-0.1,0.5-0.2,0.9-0.2,1.4l-0.1,0.5l-0.3-0.4c-0.5-0.6-1.2-1.1-2-1.3
		C309.6,222,309.3,222,309,221.9z"/>
	<path class="st9" d="M308.6,204c0.1,0-0.3,0.8-1.2,1.2s-1.7,0.2-1.7,0.1s0.8-0.1,1.5-0.5S308.5,204,308.6,204z"/>
	<path class="st4" d="M429,232.9c4.3,0,14.8,12.3,16.6,31.1c0.8,8.6,5.1,43.7,7.2,60.6c0.7,6.1-1.9,12.1-6.9,15.7
		c-11.2,8.1-33.7,21-63.6,20.6l-18.1-15.2L423,321v-1.3l2.6-2.8l-7.3-45C418.2,271.9,411.4,232.9,429,232.9z"/>
	<path class="st1" d="M413.7,153.8c0.2,6.1,8.3,9.8,8.2,15.9c0,2.6-1.7,5-2,7.6c-0.4,3.5,1.5,6.8,2.2,10.2
		c1.5,7.1-2.6,14.6-8.7,18.4s-13.8,4.6-21,3.6"/>
	<path class="st1" d="M364.7,152.3c0.2,3.3-1.9,6.2-4.1,8.6s-4.6,5-5.1,8.2c-0.8,5.8,4.8,11.1,3.6,16.8c-0.6,3.1-3.1,5.5-3.6,8.6
		s1.2,5.9,3.1,8.2s4.3,1.9,6,4.4c2,2.8,4.6,5.1,7.6,6.8c6.3,3.4,13.9-1.5,16.9-2.4"/>
	<path class="st1" d="M414.9,157.3c0.1-3-2.7-5.2-5.4-6.3s-5.8-1.5-8.3-3.1c-2.2-1.5-3.6-3.8-5.5-5.6c-7.1-7.2-18.6-7.3-25.8-0.2
		c-2.4,2.4-4.1,5.3-4.9,8.6c-1.1,4.2-0.3,9.2,3,12c3.9,3.3,9.6,2.5,14.5,1.5s10.5-2,14.7,0.9c2.5,1.8,3.9,4.6,5.4,7.2
		s3.4,5.3,6.3,6.3s6.8-0.7,6.9-3.8"/>
	<path class="st5" d="M375.5,226.3c0-6.8-0.1-13.4-0.1-13.4s-10.8-1.8-13-15.9c-1.1-7-0.7-18.5-0.1-27.9c0.5-8.4,6.2-18.8,14.6-17.9
		l26.3,6.7c2.5,0.3,4.4,2.4,4.4,5l0,0l-2.4,63.8c-0.3,8.1-7,14.5-15.1,14.3l0,0C382,240.9,375.6,234.4,375.5,226.3z"/>
	<path class="st1" d="M366.8,177.2c0,1,0.8,1.8,1.7,1.8c1,0.1,1.8-0.6,1.9-1.6c0,0,0,0,0,0c0-1-0.8-1.8-1.7-1.8
		C367.7,175.5,366.9,176.2,366.8,177.2C366.8,177.1,366.8,177.2,366.8,177.2z"/>
	<path class="st1" d="M364.8,175.1c0.2,0.2,1.6-0.8,3.5-0.8s3.4,1,3.6,0.8s-0.1-0.5-0.8-1c-0.8-0.6-1.8-0.9-2.9-0.9
		c-1,0-2,0.3-2.8,0.9C364.9,174.6,364.7,175,364.8,175.1z"/>
	<path class="st1" d="M385.7,177.6c0,1,0.8,1.8,1.7,1.8c1,0.1,1.8-0.6,1.9-1.6c0,0,0,0,0,0c0-1-0.8-1.8-1.7-1.8
		C386.6,175.9,385.8,176.6,385.7,177.6C385.7,177.6,385.7,177.6,385.7,177.6z"/>
	<path class="st1" d="M383.9,175.5c0.2,0.2,1.6-0.8,3.5-0.8s3.4,1,3.6,0.8s-0.1-0.5-0.8-1c-0.8-0.6-1.8-0.9-2.9-0.9
		c-1,0-2,0.3-2.8,0.9C384,175,383.8,175.4,383.9,175.5z"/>
	<path class="st1" d="M376.8,189.9c-1-0.3-2.1-0.5-3.2-0.6c-0.5-0.1-1-0.2-1-0.5c0-0.5,0.1-1,0.3-1.5l1.5-3.8c2-5.4,3.5-9.8,3.3-9.9
		s-2.1,4.2-4.1,9.6l-1.4,3.8c-0.3,0.6-0.4,1.3-0.2,1.9c0.1,0.4,0.4,0.6,0.8,0.7c0.3,0.1,0.6,0.1,0.8,0.1
		C374.7,190,375.8,190,376.8,189.9z"/>
	<path class="st9" d="M375.4,212.9c6.6,0.1,13.2-1.6,18.9-5c-0.2,0-5.2,9.8-18.7,8.3L375.4,212.9z"/>
	<path class="st4" d="M377.6,194.6c0.8-0.9,1.9-1.4,3.1-1.3c0.9,0.1,1.7,0.5,2.2,1.2c0.5,0.7,0.6,1.6,0.1,2.3
		c-0.6,0.7-1.6,1-2.5,0.6c-0.9-0.3-1.8-0.8-2.5-1.5c-0.2-0.2-0.4-0.4-0.6-0.6c-0.2-0.2-0.2-0.5,0-0.7"/>
	<path class="st1" d="M382.5,191.3c-0.3,0-0.3,2.1-2.1,3.6s-4.1,1.3-4.1,1.6c0,0.1,0.5,0.4,1.5,0.4c1.2,0,2.4-0.4,3.4-1.2
		c0.9-0.7,1.5-1.8,1.6-3C382.9,191.8,382.7,191.2,382.5,191.3z"/>
	<path class="st1" d="M383,172.1c0.2,0.5,2.1,0.3,4.4,0.6s4.1,0.9,4.4,0.4c0.1-0.2-0.2-0.7-0.9-1.2c-2-1.3-4.5-1.5-6.7-0.8
		C383.4,171.4,383,171.8,383,172.1z"/>
	<path class="st1" d="M365.5,169.5c0.4,0.4,1.7,0,3.3,0s3,0.3,3.3-0.2c0.1-0.2-0.1-0.7-0.7-1.1c-0.8-0.5-1.7-0.8-2.7-0.7
		c-0.9,0-1.9,0.3-2.6,0.9C365.5,168.8,365.4,169.2,365.5,169.5z"/>
	<path class="st1" d="M409.2,205.1c-3.9,0.8-4.2-1.2-7.1-3.9c-2.9-2.8-4.4-6.7-3.9-10.7c0.4-3.5,2.3-7,1.1-10.3
		c-1.6-4.3-7.7-5.7-9.3-10c-0.9-2.5-0.1-5.4-1.2-7.9c-1-2.3-3.4-3.6-5.8-4.5s-4.9-1.4-6.9-3s-3.2-4.5-2-6.6
		c10.5,1.3,20.9,3.8,30.8,7.5c2.3,0.9,4.7,1.9,6.1,3.9s1.4,5,1.2,7.6l-1.8,38"/>
	<path class="st1" d="M418,176.3c0.6-5.9,5.9-10.3,11.8-9.7c3.7,0.4,7,2.6,8.6,6c2,4,1.3,8.8-0.5,12.9c-2.2,4.8-6.6,9.2-11.9,8.9
		c-5-0.2-9-4.6-10.4-9.3s-0.9-9.8-0.3-14.8"/>
	<path class="st2" d="M420.8,195.6c0.3-0.2,0.6-0.5,0.7-0.8c0.6-0.9,0.9-1.8,1.1-2.8c0.2-1.5,0.2-3-0.1-4.4
		c-0.3-1.7-0.9-3.4-1.2-5.2c-0.5-1.7-0.6-3.5-0.3-5.2c0.3-1.6,1-2.9,1.4-4.1c0.3-1,0.3-2,0.1-3c-0.1-0.4-0.3-0.7-0.5-1
		c0,0,0.2,0.4,0.3,1c0.2,1,0.1,1.9-0.3,2.8c-0.6,1.4-1.1,2.7-1.5,4.2c-0.3,1.8-0.2,3.7,0.3,5.5c0.4,1.9,1,3.6,1.3,5.2
		c0.3,1.4,0.4,2.9,0.2,4.3C422,193.2,421.5,194.5,420.8,195.6z"/>
	<path class="st2" d="M421,178.7c0.6,0.9,1.3,1.6,2.2,2.1c4.2,2.9,9.7,3,13.9,0.2c0.9-0.5,1.7-1.2,2.2-2c-0.1-0.1-0.9,0.8-2.5,1.7
		c-4.2,2.5-9.4,2.4-13.5-0.2C421.9,179.5,421.1,178.6,421,178.7z"/>
	<path class="st2" d="M421.7,180.9c0.2,0.8,0.7,1.6,1.2,2.2c1.2,1.7,2.7,3,4.5,4.1c1.8,1.1,3.7,1.8,5.7,2.1c0.8,0.2,1.7,0.2,2.5,0
		c-0.8-0.2-1.6-0.3-2.4-0.4c-1.9-0.4-3.8-1.1-5.5-2.1c-1.7-1-3.2-2.3-4.5-3.8C422.3,181.7,421.8,180.8,421.7,180.9z"/>
	<path class="st2" d="M418.1,200.3c0.1-0.1,0.1-0.1,0.2-0.2c0.1-0.2,0.3-0.4,0.4-0.6c0.5-0.8,0.8-1.6,0.9-2.5
		c0.3-1.4,0.2-2.8-0.2-4.2c-0.5-1.8-1.7-3.4-3.3-4.4c-1.7-1.2-3.9-2-5.2-3.9c-0.7-0.9-1-2.1-0.8-3.3c0.3-1.3,0.7-2.5,1.2-3.6
		c1.1-2.7,1-5.8-0.2-8.4c-0.6-1.4-1.6-2.6-2.9-3.6c-1.3-0.9-2.8-1.5-4.3-1.8c-1.5-0.3-3-0.6-4.5-1c-1.4-0.4-2.7-1.1-3.7-2.1
		c-0.9-1-1.5-2.3-1.6-3.7c-0.1-1.4-0.4-2.7-0.7-4.1c-0.6-2.5-1.9-4.8-3.8-6.7c-1.6-1.6-3.7-2.6-6-3c-1.9-0.3-3.8,0-5.5,0.8
		c-1.3,0.6-2.3,1.6-3.1,2.8c-0.5,0.7-0.9,1.5-1.1,2.4c-0.1,0.3-0.1,0.6-0.1,0.9c0.3-1.1,0.8-2.2,1.4-3.2c0.8-1.1,1.9-2,3.1-2.6
		c1.6-0.8,3.4-1,5.2-0.7c2.2,0.4,4.1,1.4,5.7,2.9c1.8,1.8,3,4,3.6,6.4c0.3,1.3,0.5,2.7,0.6,4c0.1,1.5,0.8,2.9,1.8,4
		c1.1,1.1,2.5,1.8,4,2.2c1.5,0.4,3,0.6,4.5,1c1.5,0.3,2.9,0.8,4.1,1.7c1.2,0.9,2.1,2,2.7,3.3c1.2,2.5,1.2,5.4,0.2,7.9
		c-0.5,1.2-1,2.5-1.2,3.8c-0.2,1.3,0.1,2.6,0.9,3.7c1.5,2,3.8,2.8,5.4,3.9c1.5,1,2.7,2.4,3.2,4.2c0.4,1.3,0.5,2.7,0.3,4
		C419.2,198.2,418.8,199.3,418.1,200.3z"/>
	<path class="st2" d="M417.2,161c0.1-0.2,0.2-0.4,0.2-0.6c0.1-0.7-0.1-1.3-0.5-1.9c-0.5-0.9-1.4-1.6-2.4-1.9c-1.3-0.4-2.7-0.5-4-0.1
		c-1.5,0.3-3,0.9-4.7,1.2c-1.7,0.5-3.6,0.2-5.1-0.8c-1.5-1.1-2.2-3.1-3-5.1c-0.8-2.1-1.9-4.1-3.3-5.8c-2.7-3.4-6.4-5.9-10.7-6.9
		c-1.9-0.4-3.8-0.4-5.6,0.1c-1.6,0.5-3.1,1.4-4.2,2.6c-1.6,1.9-2,4.5-1.1,6.8c0.2,0.6,0.6,1.2,1.1,1.6c0.2,0.2,0.3,0.3,0.5,0.4
		c-0.6-0.6-1-1.3-1.4-2.1c-0.3-0.9-0.5-1.9-0.3-2.9c0.1-1.3,0.7-2.5,1.5-3.5c1.1-1.2,2.4-2,3.9-2.5c1.8-0.5,3.6-0.5,5.4-0.1
		c4.1,1,7.7,3.4,10.3,6.7c1.4,1.7,2.4,3.6,3.2,5.6c0.8,2,1.5,4,3.2,5.3c0.8,0.6,1.8,0.9,2.8,1c0.9,0.1,1.9,0,2.8-0.2
		c1.7-0.4,3.2-1,4.7-1.3c1.3-0.4,2.6-0.4,3.8,0c0.9,0.3,1.7,0.9,2.3,1.8c0.4,0.5,0.5,1.1,0.5,1.7C417.3,160.7,417.2,161,417.2,161z"
		/>
	<path class="st4" d="M430.2,233.1l-25-6.4h-29.8c0,0-15.5,0.9-24,8.5c-2.2,2.1-3.8,4.8-4.7,7.7l-13.2,30.3l-6.8-38l-23.8,3.4
		l3.8,65.4c1.4,13.9,11.6,25.3,25.3,28.2l13.5-15.2c1.6,12.4,3,23,3.1,22.9c0.3-0.3,74.1-4.8,74.1-4.8l-7.5-25.2L430.2,233.1z"/>
	<path class="st4" d="M335.7,148.5c0.1-9.4-7.5-17.1-16.9-17.2c-9.4-0.1-17.1,7.5-17.2,16.9c-0.1,6.6,3.7,12.6,9.6,15.5
		c0,2,0,4.3,0,4.3l14.9,0.2c0,0,0.1-2.4,0.2-4.6C332,160.7,335.7,154.9,335.7,148.5z"/>
	<path class="st1" d="M320.7,168c0-0.1,0-0.1,0-0.2l0.1-0.6c0.1-0.5,0.2-1.3,0.3-2.4s0.4-2.3,0.7-3.7c0.4-1.6,0.9-3.2,1.6-4.7
		c0.4-0.9,0.9-1.7,1.4-2.5c0.3-0.4,0.7-0.8,1.2-1c0.5-0.2,1.1-0.2,1.6,0.1c0.5,0.3,0.7,1,0.5,1.6c-0.3,0.5-0.8,0.9-1.3,1.1
		c-1.2,0.4-2.4,0.3-3.5-0.3c-1.2-0.6-2-1.6-2.4-2.9c-0.2-0.6-0.2-1.3-0.1-2c0.2-0.7,0.8-1.2,1.6-1.2c0.4,0,0.7,0.3,0.9,0.6
		c0.2,0.3,0.2,0.7,0.1,1.1c-0.2,0.7-0.6,1.3-1.2,1.7c-1.1,0.9-2.6,1.3-4,1.1c-1.4-0.2-2.7-1.2-3.3-2.5c-0.3-0.6-0.4-1.4-0.1-2.1
		c0.1-0.3,0.4-0.6,0.8-0.8c0.3-0.1,0.7-0.1,1,0.1c0.3,0.2,0.6,0.4,0.7,0.8c0.2,0.3,0.2,0.7,0.2,1c0,0.7-0.1,1.3-0.3,1.9
		c-0.4,1.2-1.3,2.2-2.4,2.8c-1.1,0.6-2.3,0.7-3.5,0.4c-0.6-0.1-1.1-0.4-1.5-0.8c-0.4-0.5-0.4-1.1-0.1-1.6c0.2-0.2,0.5-0.4,0.8-0.4
		c0.3,0,0.6,0,0.8,0.2c0.5,0.3,0.8,0.7,1,1.2c0.4,0.9,0.8,1.8,1.1,2.7c1.3,3.4,2.3,6.3,2.9,8.3c0.3,1,0.5,1.8,0.7,2.3l0.2,0.6
		c0,0.1,0,0.1,0,0.2c0-0.1-0.1-0.1-0.1-0.2c0-0.1-0.1-0.3-0.2-0.6c-0.2-0.5-0.4-1.3-0.7-2.3c-0.6-2-1.6-4.8-3-8.2
		c-0.3-0.9-0.7-1.8-1.1-2.7c-0.2-0.5-0.6-0.9-1-1.1c-0.4-0.4-1.1-0.3-1.4,0.1c-0.4,0.4-0.3,1.1,0.1,1.4c0.4,0.4,0.9,0.7,1.4,0.8
		c1.1,0.3,2.4,0.1,3.4-0.4c1.1-0.6,1.9-1.6,2.3-2.7c0.2-0.6,0.3-1.2,0.3-1.9c0-0.6-0.3-1.2-0.9-1.6c-0.3-0.2-0.6-0.2-0.9-0.1
		c-0.3,0.1-0.5,0.3-0.6,0.6c-0.2,0.6-0.2,1.3,0.1,1.9c0.6,1.3,1.7,2.1,3.1,2.4c1.4,0.2,2.8-0.2,3.8-1.1c0.5-0.4,0.9-0.9,1.1-1.6
		c0.1-0.3,0-0.6-0.1-0.9c-0.1-0.3-0.4-0.5-0.7-0.5c-0.3,0-0.6,0.1-0.9,0.3c-0.2,0.2-0.4,0.5-0.5,0.8c-0.2,0.6-0.1,1.3,0.1,1.9
		c0.4,1.2,1.2,2.2,2.3,2.8c1,0.5,2.3,0.6,3.4,0.3c0.5-0.2,1-0.5,1.2-1c0.2-0.5,0.1-1.1-0.4-1.3c-0.4-0.3-1-0.3-1.5-0.1
		c-0.4,0.2-0.8,0.6-1.1,1c-0.5,0.8-1,1.6-1.4,2.5c-0.7,1.5-1.2,3.1-1.6,4.7c-0.4,1.4-0.6,2.7-0.8,3.7s-0.3,1.8-0.4,2.4
		c0,0.3-0.1,0.5-0.1,0.6C320.7,167.9,320.7,168,320.7,168z"/>
	<path class="st1" d="M325,170.9l-12.8-0.1c-0.5,0-1-0.5-1-1l0,0c0-0.6,0.4-1,1-1L325,169c0.6,0,1,0.4,1,1l0,0
		C325.9,170.5,325.5,170.9,325,170.9z"/>
	<path class="st1" d="M324.9,171.7l-12.8-0.1c-0.5-0.2-1.1,0.1-1.2,0.7c-0.2,0.5,0.1,1.1,0.7,1.2c0.2,0.1,0.4,0.1,0.6,0h1.4l1.8,3.6
		c0.2,0.4,0.6,0.7,1.1,0.7l4.6,0.1c0.5,0,0.9-0.3,1.1-0.7l1.9-3.5h1c0.5,0.1,1.1-0.2,1.2-0.7c0.1-0.5-0.2-1.1-0.7-1.2
		C325.3,171.6,325.1,171.6,324.9,171.7L324.9,171.7z"/>
	<g class="st11">
		<path class="st12" d="M307.8,137.3c1-0.9,2.2-1.7,3.4-2.2c0.8-0.4,1.7-0.6,2.6-0.7c0.6-0.1,1,0,1,0.1c0.1,0.3-1.2,0.8-3,1.9
			c-4.7,2.9-7.2,8.2-6.5,13.7c0.2,2.1,0.7,3.4,0.4,3.5c-0.1,0.1-0.4-0.2-0.8-0.7c-0.5-0.8-0.8-1.6-1-2.5c-0.4-1.3-0.5-2.7-0.4-4.1
			c0.1-1.7,0.5-3.4,1.2-4.9"/>
	</g>
	<g class="st11">
		<path class="st12" d="M319,135.3c-1.1,0-2-0.3-2.1-0.9c0-0.3,0.2-0.6,0.5-0.8c0.5-0.3,1.1-0.4,1.6-0.4c0.6,0,1.1,0.1,1.6,0.4
			c0.4,0.2,0.6,0.6,0.5,0.8"/>
	</g>
	<path class="st2" d="M321.9,177.5c0,0-0.3-0.1-0.9-0.3c-0.7-0.2-1.4-0.3-2.2-0.3c-0.7,0-1.5,0.1-2.2,0.4c-0.5,0.2-0.9,0.3-0.9,0.3
		c0.2-0.2,0.5-0.4,0.8-0.4c0.7-0.3,1.5-0.4,2.2-0.4c0.7,0,1.5,0.1,2.2,0.3C321.3,177.1,321.6,177.3,321.9,177.5z"/>
	<path class="st2" d="M324,173.7c0,0.1-2.3,0.1-5.2,0s-5.2-0.1-5.2-0.2s2.3-0.1,5.2,0S324,173.6,324,173.7z"/>
	<path class="st2" d="M323.2,175.2c-0.4,0.1-0.8,0.1-1.3,0.1c-0.8,0-1.9,0.1-3.1,0.1s-2.3,0-3.1-0.1c-0.4,0-0.9,0-1.3-0.1
		c0.4,0,0.8,0,1.3,0h3.1h3.1C322.3,175.2,322.8,175.2,323.2,175.2z"/>
	<path class="st1" d="M348.3,291c-0.3-0.3-0.5-0.6-0.8-0.9c-0.6-0.9-1.1-1.9-1.3-3c-0.8-3.5-0.6-7.2,0.6-10.6c1.3-4,3.1-7.3,4.1-9.8
		c0.5-1.3,0.9-2.3,1.1-3c0.1-0.4,0.2-0.8,0.4-1.1c0,0.4-0.1,0.8-0.2,1.2c-0.2,0.7-0.5,1.8-1,3.1c-0.9,2.6-2.6,6-3.9,9.9
		c-1.2,3.3-1.5,6.9-0.8,10.3C347,288.4,347.6,289.8,348.3,291z"/>
	<path class="st1" d="M417.4,265.2c0.1,0.2,0.1,0.3,0.1,0.5c0.1,0.4,0.2,0.9,0.3,1.5c0.2,1.4,0.6,3.2,1,5.5
		c0.8,4.7,1.9,11.1,3.1,18.2s2.1,13.6,2.8,18.3c0.3,2.3,0.5,4.2,0.7,5.6c0,0.6,0.1,1.1,0.1,1.5c0,0.2,0,0.4,0,0.5
		c-0.1-0.2-0.1-0.3-0.1-0.5c-0.1-0.4-0.1-0.9-0.2-1.5c-0.2-1.4-0.5-3.3-0.9-5.5c-0.8-4.7-1.8-11.1-2.9-18.2s-2.2-13.5-2.9-18.2
		c-0.4-2.3-0.6-4.2-0.9-5.5c-0.1-0.6-0.2-1.1-0.2-1.5C417.4,265.5,417.4,265.3,417.4,265.2z"/>
	<path class="st1" d="M332.8,292c0-0.9,0-1.9,0.2-2.8c0.1-1.7,0.3-4.1,0.4-6.7s0-5,0-6.7c-0.1-0.9-0.1-1.9,0-2.8
		c0.2,0.9,0.4,1.8,0.4,2.8c0.2,2.2,0.3,4.5,0.2,6.7c-0.1,2.3-0.2,4.5-0.5,6.7C333.3,290.2,333.1,291.1,332.8,292z"/>
	<path class="st1" d="M434.4,323.4c-0.1,0-0.2-0.7-0.7-1.6c-0.6-1.3-1.5-2.4-2.6-3.2c-1.1-0.8-2.5-1.4-3.9-1.6
		c-1.1-0.2-1.8-0.1-1.8-0.2c0.6-0.2,1.2-0.3,1.8-0.2c3,0.2,5.7,2.2,6.8,5C434.3,322.2,434.4,322.8,434.4,323.4z"/>
	<path class="st1" d="M428.9,326.4c-0.8-1.2-1.6-2.2-2.6-3.2c-1.1-0.9-2.2-1.7-3.5-2.3C425.8,321.4,428.1,323.6,428.9,326.4
		L428.9,326.4z"/>
	<path class="st1" d="M410.5,326.4c0-0.1,2.8-1.3,6.2-2.8s6.2-2.9,6.3-2.7c-1.9,1.3-3.9,2.4-6.1,3.2
		C414.9,325.1,412.7,325.8,410.5,326.4z"/>
	<path class="st3" d="M313.2,284.2c0,0,14.4,68.4,14.4,67.5s72.5,3.1,85.4,3.7l2.7-0.7l20.5-18.8l-23.5-1.9l-8.4-48.1L313.2,284.2z"
		/>
	<path class="st2" d="M404.2,285.9c0.1,0,2.8,15.4,6,34.4s5.6,34.4,5.5,34.5s-2.8-15.4-6-34.4S404.1,285.9,404.2,285.9z"/>
	<path class="st2" d="M404.5,286c0,0-0.1,0.2-0.5,0.5c-0.5,0.4-1,0.9-1.5,1.4c-0.2,0.3-0.6,0.8-0.4,1.3s0.2,1.1,0.3,1.8
		c0.2,1.3,0.5,2.7,0.8,4.3c1.1,6.4,2.6,15.2,4.2,24.9s3,18.5,4.1,24.9c0.5,3.1,0.9,5.7,1.2,7.6c0.1,0.9,0.2,1.5,0.3,2.1
		c0,0.2,0.1,0.5,0.1,0.7c-0.1-0.2-0.1-0.5-0.2-0.7c-0.1-0.5-0.2-1.2-0.4-2c-0.3-1.8-0.8-4.4-1.3-7.5c-1.1-6.4-2.6-15.2-4.2-24.9
		s-3-18.5-4.1-24.9c-0.2-1.6-0.5-3-0.7-4.3c-0.1-0.6-0.2-1.2-0.3-1.8c-0.1-0.5,0.1-1.1,0.5-1.5c0.5-0.5,1-1,1.6-1.4
		C404.1,286.3,404.3,286.1,404.5,286z"/>
	<path class="st2" d="M401.9,288.4c-0.3,0-0.6,0-0.9,0h-2.6l-9.4-0.1l-31.1-0.5l-31.1-0.5l-9.4-0.1l-2.6,0c-0.3,0-0.6,0-0.9-0.1
		c0,0,0.3,0,0.9,0h2.6c2.2,0,5.4,0,9.4,0c8,0,18.9,0.1,31.1,0.4s23.1,0.5,31.1,0.7l9.4,0.3l2.5,0.1
		C401.3,288.4,401.6,288.4,401.9,288.4z"/>
	<path class="st2" d="M412.6,336c0.5,0,0.9,0,1.4,0l3.8,0.1c3.2,0.1,7.7,0.4,12.7,0.7h0.6l-0.5,0.4c-0.3,0.2-0.6,0.5-0.9,0.8
		c-4,3.4-7.7,6.5-10.3,8.7l-3.2,2.6c-0.4,0.3-0.8,0.6-1.2,0.9c0.3-0.4,0.7-0.7,1.1-1l3.1-2.7c2.6-2.3,6.2-5.4,10.2-8.8
		c0.3-0.3,0.6-0.5,0.9-0.8l0.1,0.5c-5-0.3-9.5-0.6-12.7-0.9l-3.8-0.3C413.5,336.2,413.1,336.1,412.6,336z"/>
	<path class="st5" d="M349.6,353.8L349.6,353.8l-0.9-11.1c1.9-0.3,3.7,1,4,2.9c0,0.2,0,0.5,0,0.7v-6.9c0,0,4.2-0.9,5.2,4.6
		c0.4,2.9,1.2,5.8,2.2,8.6l2.3,1.2l-2.1-12.8c0,0,4.5,0.4,5.3,4.6c0.4,2.5,1.1,4.9,2,7.2l7.1,2c0,0-4.1-3.6-3.7-4.8s0.1-1.1,0.9-1.3
		c1.3,0,2.6,0.3,3.8,1c1.3,0.7,8.8,5.1,8.8,5.1v5.5c0,0-17.5,1.3-21.4,0.5l-7.6-1.8C352.7,358.5,350.5,356.5,349.6,353.8z"/>
	<path class="st6" d="M366.2,317.3c0.1,2.7-1.9,5-4.6,5.1c-2.7,0.1-5-1.9-5.1-4.6c-0.1-2.5,1.6-4.6,4-5
		C363.4,312.4,365.9,314.5,366.2,317.3z"/>
	<g class="st13">
		<path d="M425.5,316.5c3-1,6.2-0.9,9.1,0.3c2.9,1.2,5,3.9,5.5,7c0.1,0.7,0.1,1.4-0.1,2.1c-0.2,0.7-0.8,1.2-1.5,1.5
			c-1.2,0.2-2.3-0.4-2.9-1.4c-0.5-1-1-2.1-1.3-3.2c-1.5-3.7-5.1-6.2-9-6.3l0.5,0.1"/>
	</g>
	<path class="st4" d="M372.9,230.5c0.6-1.9,0.1-3.9-0.3-5.9s-0.4-4.2,0.9-5.6s3.5-1.6,5.5-1.7l24.2-1.1c1.6-0.1,3.6,0,4.6,1.3
		c0.7,0.8,1,1.9,0.9,3c-1.2,4.6-0.9,8.5,1,11.7"/>
	<path class="st1" d="M405.7,228.2c-0.3,0.3-0.7,0.6-1.1,0.9c-1,0.7-2.1,1.4-3.2,2c-3.7,2-7.7,3.2-11.9,3.6
		c-2.3,0.2-4.6,0.2-6.9-0.1c-1.9-0.3-3.7-0.8-5.3-1.7c-1.1-0.6-2.1-1.4-2.9-2.4c-0.2-0.3-0.4-0.5-0.6-0.8c-0.1-0.1-0.1-0.2-0.2-0.3
		c1,1.3,2.4,2.4,3.9,3.2c1.6,0.8,3.4,1.3,5.2,1.6c2.2,0.3,4.5,0.3,6.8,0.1c4.1-0.4,8.1-1.6,11.7-3.4
		C404.1,229.4,405.6,228.1,405.7,228.2z"/>
	<path class="st1" d="M389.2,234.8c-0.3-0.9-0.5-1.8-0.6-2.7c-0.3-1.7-0.7-4-1.1-6.5c-0.2-1.3-0.4-2.5-0.6-3.6c-0.2-1-0.2-2,0.1-3
		c0.2-0.7,0.7-1.2,1.3-1.6c0.2-0.1,0.5-0.2,0.7-0.2c0,0-0.2,0.1-0.6,0.4c-0.5,0.4-0.8,0.9-1,1.6c-0.2,0.9-0.2,1.9,0,2.9
		c0.2,1.1,0.4,2.3,0.6,3.6c0.4,2.5,0.8,4.8,1,6.5C389.1,233,389.2,233.9,389.2,234.8z"/>
	<path class="st1" d="M401.8,231c-0.2-0.7-0.4-1.5-0.5-2.2c-0.2-1.4-0.5-3.2-0.7-5.4s-0.4-4-0.6-5.3c-0.1-0.5-0.4-1-0.8-1.3
		c-0.3-0.2-0.5-0.2-0.5-0.3s0.2-0.1,0.6,0.1c0.5,0.3,0.9,0.8,1,1.4c0.3,1.4,0.5,3.3,0.8,5.4s0.5,4,0.6,5.4
		C401.8,229.5,401.8,230.3,401.8,231z"/>
	<path class="st1" d="M378.7,217.4c-0.6,0.3-1.2,0.8-1.6,1.4c-0.4,0.6-0.8,1.3-0.9,2.1c-0.2,0.9-0.2,1.9-0.1,2.8
		c0.2,2.1,0.4,3.9,0.4,5.3c0.1,0.7,0.1,1.5,0,2.2c-0.2-0.7-0.4-1.4-0.4-2.2c-0.2-1.4-0.4-3.2-0.6-5.3c-0.1-1-0.1-2,0.1-3
		c0.2-0.8,0.5-1.6,1.1-2.2C377.2,217.8,378,217.4,378.7,217.4z"/>
</g>
<g id="freepik--character-1--inject-87">
	<path class="st2" d="M280.1,364.8c0,5.1,3,103.9,3,103.9l-42-0.2l-7.3-43.9l-1.9,43.9h-40.4l4.4-108.3L280.1,364.8z"/>
	<path class="st1" d="M156.2,323.9l-21.5-32l15.9-12.9l26.9,25c0,0,11.6-65,23-68.9l-0.9,100.8l0,0
		C184.3,343.2,165.8,338.1,156.2,323.9z"/>
	<polygon class="st4" points="112.3,173.2 116.9,235.5 191.6,378.8 234.9,353.8 161.2,213.7 	"/>
	<g class="st14">
		<path class="st12" d="M161.9,214c-1.2,2.1-3.9,2.8-6,1.5c-0.1-0.1-0.2-0.2-0.4-0.2c1.5,6-2.2,12-8.1,13.4c-3.4,0.8-6.9,0-9.6-2.1
			c-0.9,7.1-7.5,12.1-14.6,11.2c-2.3-0.3-4.5-1.2-6.3-2.7l-4.5-61.8L161.9,214z"/>
	</g>
	<path class="st4" d="M114.1,198.2c0,0,10.1,6.4,18.2-8.5l-20-16.6L114.1,198.2z"/>
	<path class="st12" d="M208.1,367.1c-0.1,0.1-16-31.3-35.5-70.1s-35.2-70.2-35-70.3s16,31.3,35.5,70.1S208.2,367.1,208.1,367.1z"/>
	<path class="st12" d="M226.1,356.4c-0.1,0.1-16-31.3-35.5-70.1s-35.2-70.2-35.1-70.3s16,31.3,35.5,70.1S226.2,356.3,226.1,356.4z"
		/>
	<path class="st15" d="M138.2,256.6l-9.7,3.9l-2.1,7.8l3.3,13l7.8,8.3l5.3-4.4l0.3-8l0.6-4.5c0,0,4.8-1.5,4.9-2.2s-0.6-3.2-1.3-3.3
		s-5.8,1.8-5.8,1.8s5.9-4.7,5.8-5.5s-0.8-2.7-2-2.9s-10.8,4.3-10.8,4.3l-1.6,3.5l-1.4-5.7C131.8,262.8,140.3,260.5,138.2,256.6z"/>
	<path class="st16" d="M139.4,275c0,0-0.2-0.3-0.3-1c-0.2-1.7,0.4-3.3,1.7-4.5c0.5-0.4,0.8-0.6,0.9-0.5
		C140,270.5,139.2,272.7,139.4,275L139.4,275z"/>
	<path class="st16" d="M134.8,273.3c0.2-0.8,0.3-1.7,0.4-2.5c0-1,0.2-1.9,0.5-2.8c0.2-0.6,0.5-1.1,0.9-1.5c0.4-0.4,1-0.8,1.6-1
		c2.3-0.8,4.4-1.5,5.9-2c0.8-0.3,1.7-0.5,2.5-0.7c-0.8,0.4-1.6,0.7-2.4,1c-1.5,0.6-3.6,1.3-5.9,2.1c-0.5,0.2-1,0.5-1.4,0.9
		c-0.4,0.4-0.6,0.8-0.8,1.3c-0.3,0.9-0.5,1.8-0.6,2.7C135.5,271.6,135.2,272.5,134.8,273.3z"/>
	<path class="st16" d="M132.6,271.5c-0.1,0-0.1-0.9,0.1-1.9s0.4-1.9,0.6-1.8c0.1,0.6,0.1,1.3-0.1,1.9
		C132.9,270.7,132.7,271.5,132.6,271.5z"/>
	<path class="st4" d="M263.7,216.4l-8.5-2.9l-31.8,7.3l-2.8,2.3l-16.8,155.7c7.2,7.5,30,8.9,42.9,6.7L263.7,216.4z"/>
	<path class="st1" d="M264.3,216.7l-4.1-2c0,0-9,39.6-9,65.8s-5.7,121.1-5.7,121.1l42.9-1.1V295.6L264.3,216.7z"/>
	<path class="st1" d="M203.8,403.1l-16.2-4.8l5.7-76.8l-1.1-55.6l8.5-31l20.2-12.5C220.8,222.5,204.9,393.9,203.8,403.1z"/>
	<path class="st15" d="M237.7,235.5L237.7,235.5c-8.1-0.7-14.3-7.5-14.3-15.6V206c0,0-12.9-2-13-14.9s2.1-42.4,2.1-42.4l0,0
		c14.9-6.4,32.1-4.2,44.9,5.6l1.9,1.5l-4.7,65.2c-0.6,8.6-8.1,15.1-16.7,14.5C237.8,235.5,237.7,235.5,237.7,235.5z"/>
	<path class="st16" d="M223.4,205.8c5.9,0.1,11.8-1.6,16.8-4.8c0,0-4,9.2-16.8,8.1L223.4,205.8z"/>
	<path class="st15" d="M257.7,169.1c0.2-0.1,8.8-2.6,8.5,6.2s-9,6.7-9.1,6.4S257.7,169.1,257.7,169.1z"/>
	<path class="st16" d="M260,178.5c0,0,0.1,0.1,0.4,0.2c0.4,0.2,0.8,0.2,1.1,0.1c0.9-0.3,1.8-1.8,1.9-3.3c0-0.8-0.1-1.5-0.4-2.2
		c-0.2-0.6-0.6-1-1.1-1.2c-0.4-0.1-0.8,0-0.9,0.4c-0.1,0.2-0.1,0.4-0.1,0.4s-0.2-0.1-0.1-0.5c0.1-0.2,0.2-0.4,0.4-0.5
		c0.2-0.2,0.6-0.3,0.9-0.2c0.7,0.2,1.3,0.7,1.6,1.4c0.3,0.8,0.5,1.6,0.5,2.5c-0.1,1.8-1.1,3.4-2.4,3.7c-0.5,0.1-1,0-1.4-0.3
		C260,178.7,260,178.5,260,178.5z"/>
	<path class="st1" d="M216.7,168.5c0,1,0.8,1.8,1.8,1.9c1,0.1,1.8-0.7,1.9-1.6c0,0,0,0,0,0c0-1-0.8-1.8-1.8-1.9
		C217.6,166.8,216.8,167.5,216.7,168.5C216.7,168.5,216.7,168.5,216.7,168.5z"/>
	<path class="st1" d="M214.9,166.8c0.2,0.2,1.6-0.8,3.6-0.8s3.4,1,3.6,0.8s-0.1-0.5-0.8-1c-0.9-0.6-1.9-0.9-2.9-0.9
		c-1,0-2,0.3-2.9,0.9C215,166.2,214.8,166.7,214.9,166.8z"/>
	<path class="st1" d="M236.1,169.3c0,1,0.8,1.8,1.8,1.9c1,0.1,1.8-0.6,1.9-1.6c0,0,0,0,0,0c0-1-0.8-1.8-1.8-1.9
		C237.1,167.6,236.2,168.3,236.1,169.3C236.1,169.3,236.1,169.3,236.1,169.3z"/>
	<path class="st1" d="M234.4,167.2c0.2,0.2,1.6-0.8,3.6-0.8s3.4,1,3.6,0.8s-0.1-0.5-0.8-1c-0.9-0.6-1.9-0.9-2.9-0.9
		c-1,0-2,0.3-2.9,0.9C234.5,166.6,234.2,167.1,234.4,167.2z"/>
	<path class="st1" d="M227.2,181.8c-1-0.3-2.1-0.5-3.2-0.6c-0.5-0.1-1-0.1-1.1-0.5c0-0.5,0.1-1,0.3-1.5c0.5-1.2,1-2.5,1.5-3.9
		c2.1-5.5,3.6-10,3.4-10.1s-2.1,4.3-4.1,9.8c-0.5,1.4-1,2.6-1.4,3.9c-0.3,0.6-0.4,1.3-0.3,2c0.2,0.4,0.5,0.6,0.8,0.7
		c0.3,0.1,0.6,0.1,0.9,0.1C225,182,226.1,182,227.2,181.8z"/>
	<path class="st1" d="M233.9,159.4c0.2,0.5,2.2,0.3,4.5,0.6s4.2,0.9,4.5,0.4c0.1-0.2-0.2-0.7-1-1.3c-2-1.3-4.6-1.6-6.8-0.8
		C234.2,158.7,233.8,159.2,233.9,159.4z"/>
	<path class="st1" d="M215.7,161.1c0.3,0.4,1.7,0,3.3,0s3,0.3,3.4-0.2c0.1-0.2-0.1-0.7-0.7-1.1c-1.7-1-3.8-1-5.4,0.2
		C215.7,160.4,215.5,160.9,215.7,161.1z"/>
	<path class="st1" d="M206.2,140.6c-0.2-1.6,0.5-3.2,1.8-4.2c1.3-1,3.2-0.8,4.4,0.3c-0.5-2.1,0.8-4.2,3-4.7c0.1,0,0.3-0.1,0.4-0.1
		c2.1-0.1,3.9,1.4,5.9,2c2,0.4,4.1,0.2,6-0.7c1.9-0.8,3.7-1.8,5.6-2.5c8.5-3.1,17.8,1.2,21,9.7c2.8-0.9,6,0.6,7.8,2.9
		c1.6,2.5,2.3,5.5,1.8,8.4c-0.3,2-0.8,3.9-1.5,5.8c0,0.2,0,0.3,0,0.5c-0.1,7.1-0.9,15.4-4,15.4c-5.3,0.1-4-9.8-4-9.8
		c-6.5-2.5-4.1-12.2-5.7-13.6s-5-4.9-18.5,2c-5.2,2.7-12.2,2.6-16,1.7l-0.3-0.1h-0.1l-0.1-0.1c-1.2-0.3-2.4-0.8-3.5-1.5
		c-1.3-0.7-2.3-1.8-2.9-3.2c-0.6-1.4-0.3-2.9,0.7-4C207.1,143.7,206.4,142.2,206.2,140.6z"/>
	<path class="st16" d="M225.5,187.9c0.3,0.8,0.7,1.6,1.1,2.2c0.5,0.7,1.3,1.1,2.1,1.2c0.9,0,1.8-0.5,2.3-1.2
		c0.5-0.8,0.7-1.7,0.6-2.6c0-0.8-0.4-1.8-1.2-1.9c-0.3,0-0.7,0.1-1,0.2l-4.2,1.7"/>
	<path class="st1" d="M227.2,191.4c0.8,0.1,1.5,0,2.3-0.3c0.7-0.3,1.3-0.8,1.7-1.6c0.4-0.9,0.4-1.9,0-2.8c-0.1-0.2-0.2-0.4-0.4-0.6
		c-0.2-0.2-0.1-0.2-0.3-0.1s-0.4,0.2-0.7,0.3l-0.7,0.3c-0.9,0.4-1.7,0.7-2.4,0.9c-0.7,0.4-1.5,0.6-2.3,0.7c0.6-0.5,1.3-0.9,2.1-1.2
		l2.4-1.1l0.7-0.3c0.2-0.1,0.5-0.2,0.8-0.3c0.2-0.1,0.4-0.1,0.6,0c0.2,0.1,0.3,0.2,0.5,0.4c0.9,1.2,1.1,2.9,0.4,4.2
		c-0.5,0.8-1.2,1.5-2.2,1.8c-0.6,0.2-1.2,0.2-1.8,0.1C227.4,191.6,227.2,191.4,227.2,191.4z"/>
	<path class="st2" d="M249.2,148.7c0-0.5,0-1,0-1.6c-0.2-1.4-0.9-2.7-2-3.6c-1.6-1.4-3.7-2-5.8-1.9c-2.6,0.2-5.1,0.7-7.5,1.7
		c-1.3,0.4-2.6,0.8-3.9,1.1c-3.3,0.7-6.8,0.6-10.1-0.4c-1.4-0.4-2.7-1-4-1.7c-0.3-0.2-0.7-0.4-1-0.6c-0.1-0.1-0.2-0.1-0.3-0.2
		c0,0,0.5,0.3,1.4,0.7c1.3,0.7,2.6,1.2,4,1.6c2,0.6,4.1,0.8,6.2,0.7c1.2,0,2.5-0.2,3.7-0.5c1.3-0.3,2.6-0.7,3.9-1.1
		c2.4-1,5-1.5,7.6-1.7c2.2-0.1,4.3,0.6,6,2.1c1.1,1,1.8,2.3,2,3.8C249.5,147.7,249.4,148.2,249.2,148.7z"/>
	<path class="st2" d="M259.2,170.5c-0.1-0.1-0.1-0.2-0.2-0.3c-0.1-0.2-0.2-0.5-0.4-0.8c-0.4-1-0.8-2.1-1-3.2c-0.4-1.6-0.5-3.3-0.3-5
		c0.2-2,0.6-4,1.1-6c0.5-1.9,0.5-4,0-5.9c-0.2-0.8-0.7-1.6-1.2-2.2c-0.5-0.6-1.1-1-1.9-1.2c-1-0.4-2.2-0.4-3.2,0.1
		c-0.4,0.2-0.7,0.4-1,0.7c0.2-0.3,0.5-0.6,0.9-0.8c1-0.5,2.2-0.6,3.3-0.2c0.8,0.2,1.5,0.7,2,1.3c0.6,0.7,1.1,1.5,1.3,2.4
		c0.5,2,0.5,4.1,0,6.1c-0.5,2-0.9,3.9-1.2,5.9c-0.1,1.6-0.1,3.3,0.2,4.9c0.2,1.1,0.5,2.2,0.9,3.2
		C259.1,170.1,259.2,170.5,259.2,170.5z"/>
	<path class="st2" d="M250.4,147.7c0-0.2,0-0.3,0-0.5c0-0.4,0-0.9,0-1.5c0.1-1.8-0.1-3.6-0.6-5.3c-0.4-1.2-0.9-2.3-1.7-3.2
		c-0.9-1.1-2.1-1.9-3.4-2.3c-1.5-0.3-3.1-0.3-4.6,0.2c-1.6,0.5-3.2,1.2-4.6,2.1c-1.5,0.9-3,1.7-4.6,2.4c-1.5,0.6-3.1,0.9-4.7,0.9
		c-1.5,0-2.9-0.1-4.3-0.5c-1.2-0.3-2.4-0.8-3.5-1.4c-1.6-0.9-3-2.1-4.1-3.5c-0.3-0.4-0.6-0.8-0.8-1.2c-0.1-0.1-0.2-0.3-0.2-0.4
		c0.1,0.1,0.2,0.3,0.3,0.4c0.3,0.4,0.6,0.8,0.9,1.2c1.2,1.4,2.6,2.5,4.2,3.4c1.1,0.6,2.2,1,3.4,1.4c1.4,0.4,2.8,0.5,4.2,0.5
		c1.6,0,3.1-0.4,4.6-0.9c1.6-0.7,3.1-1.5,4.5-2.3c1.5-0.9,3-1.6,4.7-2.1c1.6-0.5,3.2-0.5,4.8-0.2c1.4,0.4,2.7,1.2,3.6,2.4
		c0.8,1,1.4,2.1,1.7,3.4c0.5,1.8,0.6,3.6,0.5,5.4c0,0.6-0.1,1.1-0.1,1.5C250.5,147.4,250.5,147.5,250.4,147.7z"/>
	<path class="st1" d="M264.3,216.7c0,0,30.7,9.8,32.7,15.1c1.5,4,17.6,52.4,21.1,83.9c1.3,12.7-7.9,24.1-20.6,25.5
		c-0.1,0-0.3,0-0.4,0c-20.8,1.9-50.9,4.4-50.9,2.7v-26.1l39.1-5.7l-14.5-42.5L264.3,216.7z"/>
	<path class="st15" d="M224.9,338.6c4,1,21.3,1,21.3,1v-20.5c0,0-7.5-3.2-9.6-5.1s-8-12.9-8-12.9c-2.2,1.3-3.3,3.8-2.7,6.3
		c1,4.5,2.8,5.1,3,6.9c0,0,0.2,0.5,0.2,0.5c0.4,2.5-2,4.7-2,4.7c-0.8-0.6-1.7-1.1-2.6-1.4c-3.6-0.4-8,2.2-8,3.6c0,0-0.1,3.9,0,4.5
		s2,1.4,2,1.4s-0.6,2.6,0,3.8c0.7,0.9,1.5,1.6,2.5,2C221,333.4,222.7,338,224.9,338.6z"/>
	<path class="st16" d="M229.1,335.3c-2.8,0.3-5.6-0.3-8.1-1.8c0.1-0.1,1.8,0.5,4,1S229.1,335.1,229.1,335.3z"/>
	<path class="st16" d="M228.1,329.1c-1.5,0.5-3.2,0.5-4.7,0.2c-1.6-0.1-3.1-0.6-4.5-1.5c0.1-0.1,2,0.6,4.6,1S228.1,329,228.1,329.1z
		"/>
	<path class="st16" d="M227.5,311.5c0.6,0.7,1.1,1.6,1.4,2.5c0.2,0.5,0.3,0.9,0.4,1.4c0.1,0.6,0.1,1.2,0,1.8c-0.4,1.3-1.3,2.4-2.5,3
		c-0.6,0.4-1.2,0.6-1.9,0.8c-0.6,0.1-1.2,0.2-1.9,0.2c-1.2,0-2.2,0-3.1,0c-1.8,0-2.8,0.3-2.9,0.2c0.9-0.4,1.9-0.6,2.8-0.6
		c0.9-0.1,2-0.1,3.1-0.2c0.6,0,1.2-0.1,1.8-0.2c0.6-0.1,1.2-0.4,1.8-0.7c1.1-0.6,1.9-1.6,2.3-2.7c0.1-0.5,0.1-1,0-1.5
		c-0.1-0.5-0.2-0.9-0.4-1.4C228,312.5,227.4,311.5,227.5,311.5z"/>
	<path class="st2" d="M285.8,311.9c-0.5,0.2-1,0.3-1.5,0.3l-4.2,0.7c-3.6,0.6-8.5,1.4-14,2.2s-10.4,1.5-14,2s-5.8,0.7-5.8,0.6
		l1.5-0.3l4.2-0.7l14-2.2c5.5-0.8,10.4-1.5,14-2l4.2-0.6C284.7,311.9,285.3,311.9,285.8,311.9z"/>
	<path class="st2" d="M302.4,308c-1,0.1-2.1,0.1-3.1,0c-1.9-0.1-4.5-0.2-7.4-0.4c-1.3-0.2-2.7-0.2-4,0c-1.1,0.2-2,0.8-2.6,1.6
		c-0.4,0.6-0.5,1.3-0.4,2c0.1,0.5,0.3,0.7,0.3,0.8s-0.3-0.2-0.5-0.7c-0.2-0.8-0.2-1.6,0.2-2.3c0.6-1,1.6-1.7,2.8-1.9
		c1.4-0.2,2.8-0.3,4.1-0.1c2.9,0.2,5.5,0.4,7.4,0.6C300.3,307.7,301.4,307.8,302.4,308z"/>
	<path class="st2" d="M296,315.2c-1.9-0.3-3.8-0.7-5.6-1.4c-1.9-0.5-3.7-1.1-5.4-1.9c1.9,0.3,3.8,0.8,5.6,1.4
		C292.4,313.8,294.3,314.4,296,315.2z"/>
	<path class="st2" d="M271.7,264c0.1,0,3.3,9.9,7,22.2s6.7,22.3,6.5,22.4s-3.3-9.9-7-22.2S271.6,264,271.7,264z"/>
	<path class="st2" d="M294.6,232.5c0,0.1-1.8,0.4-4.5,1.4c-7.2,2.8-12.9,8.5-15.6,15.7c-1,2.7-1.3,4.6-1.4,4.5c0-0.4,0-0.9,0.1-1.3
		c0.2-1.2,0.5-2.3,0.9-3.4c2.6-7.5,8.4-13.3,15.9-15.9c1.1-0.4,2.2-0.7,3.4-0.9C293.8,232.6,294.2,232.5,294.6,232.5z"/>
	<path class="st2" d="M192.5,253.9c0,0.2,0.1,0.5,0.1,0.7c0,0.5,0,1.2,0.1,2c0,1.8,0.1,4.3,0.1,7.3c0.1,6.2,0.2,14.8,0.3,24.2
		s0.1,18,0.1,24.2c0,3,0,5.5,0,7.3v2c0,0.2,0,0.5,0,0.7c0-0.2-0.1-0.5-0.1-0.7c0-0.5,0-1.2-0.1-2c0-1.8-0.1-4.3-0.1-7.3
		c-0.1-6.2-0.2-14.8-0.3-24.2s-0.1-18-0.1-24.2c0-3,0-5.5,0-7.3c0-0.8,0-1.5,0-2C192.5,254.3,192.5,254.1,192.5,253.9z"/>
	<path class="st1" d="M240.9,467.1c-0.1-0.2-0.2-0.5-0.2-0.8c-0.1-0.5-0.3-1.3-0.5-2.2c-0.4-1.9-1-4.6-1.7-8
		c-1.4-6.8-3.1-16.2-4.8-26.6s-2.9-19.9-3.8-26.8c-0.4-3.4-0.7-6.2-0.9-8.1l-0.2-2.2c0-0.3,0-0.5,0-0.8c0.1,0.3,0.1,0.5,0.1,0.8
		c0.1,0.5,0.2,1.3,0.3,2.2c0.3,2,0.6,4.7,1.1,8.1c0.9,6.9,2.2,16.3,3.9,26.7s3.4,19.8,4.6,26.6c0.6,3.4,1.1,6.1,1.5,8
		c0.2,0.9,0.3,1.6,0.4,2.2C240.9,466.6,240.9,466.8,240.9,467.1z"/>
	<path class="st2" d="M297.2,341.2c0,0.1-11.3,1-25.2,1.9s-25.2,1.5-25.2,1.4s11.3-1,25.2-1.9S297.2,341,297.2,341.2z"/>
</g>
<g id="freepik--Plants--inject-87">
	<path class="st1" d="M93.4,441.2c0-0.2,0.1-0.3,0.2-0.5c0.2-0.3,0.4-0.8,0.6-1.3c0.7-1.7,1.3-3.5,1.8-5.3
		c1.2-4.7,1.6-11.9-0.2-20.4c-0.9-4.7-2.2-9.2-3.8-13.7c-1.6-4.9-3.5-10-5-15.6c-1.7-5.8-2.5-11.9-2.5-17.9c0.2-6.3,2.1-12.7,4.2-19
		s4.2-12.5,4.9-18.6c0.7-6-0.5-12-3.4-17.3c-2.7-5-6.2-9.4-8.8-13.8c-2.4-4.1-4.2-8.6-5.3-13.3c-1.6-6.8-1.7-13.8-0.3-20.6
		c0.5-2.5,1.2-4.9,2.1-7.3c0,0.2-0.1,0.3-0.1,0.5c-0.1,0.4-0.2,0.8-0.4,1.4c-0.5,1.8-1,3.6-1.3,5.5c-1.2,6.8-1,13.7,0.5,20.4
		c1.1,4.6,2.9,9,5.3,13.1c2.6,4.4,6,8.7,8.8,13.8c3,5.3,4.2,11.5,3.5,17.6c-0.6,6.3-2.8,12.5-4.8,18.8s-3.9,12.6-4.2,18.8
		c-0.1,6,0.7,12,2.4,17.8c1.4,5.6,3.3,10.7,4.9,15.6c1.5,4.5,2.8,9.1,3.7,13.8c1.7,8.6,1.2,15.8-0.1,20.5c-0.5,1.8-1.1,3.6-1.9,5.3
		l-0.7,1.3C93.6,440.9,93.5,441.1,93.4,441.2z"/>
	<path class="st4" d="M85,302.1c0,0-5.2-16.7,4.2-26.5c0.2-0.2,0.6-0.3,0.8,0c0.1,0.1,0.2,0.2,0.2,0.3
		C90.6,278.7,91.2,287.1,85,302.1z"/>
	<path class="st1" d="M88.1,281.2c0,1-0.1,2.1-0.3,3.1c-0.3,2.1-0.8,4.6-1.2,7.4s-0.8,5.2-1.2,7.4c-0.1,1-0.3,2.1-0.6,3
		c-0.1-1-0.1-2.1,0.1-3.1c0.2-1.9,0.5-4.5,1-7.4s1-5.5,1.4-7.4C87.5,283.2,87.7,282.2,88.1,281.2z"/>
	<path class="st4" d="M91.1,341.6c0,0,3.2-17.2,16.1-21.5c0.3-0.1,0.6,0.1,0.7,0.4c0,0.1,0,0.2,0,0.4
		C107.1,323.5,103.7,331.2,91.1,341.6z"/>
	<path class="st1" d="M103.7,324.5c-0.5,0.9-1.1,1.8-1.8,2.6l-4.5,6l-4.5,6c-0.6,0.8-1.2,1.6-1.9,2.4c0.4-1,0.9-1.9,1.5-2.7
		c1-1.6,2.6-3.8,4.3-6.1s3.4-4.4,4.7-5.9C102.2,326,102.9,325.2,103.7,324.5z"/>
	<path class="st4" d="M87.6,384.8c0,0-1.9-17.4,9.1-25.2c0.3-0.2,0.6-0.1,0.8,0.1c0.1,0.1,0.1,0.2,0.1,0.3
		C97.7,362.8,96.7,371.2,87.6,384.8z"/>
	<path class="st1" d="M94.7,364.8c-0.2,1-0.5,2-0.9,3l-2.6,7c-1,2.6-1.8,5-2.6,7c-0.3,1-0.7,2-1.1,2.9c0.1-1,0.3-2,0.7-3
		c0.5-1.8,1.4-4.4,2.4-7.1s2-5.2,2.8-7C93.7,366.6,94.1,365.7,94.7,364.8z"/>
	<path class="st4" d="M97.3,428.2c0,0-1.3-17.5,10-24.9c0.3-0.2,0.6-0.1,0.8,0.2c0.1,0.1,0.1,0.2,0.1,0.3
		C108.1,406.6,106.8,415,97.3,428.2z"/>
	<path class="st1" d="M105.1,408.5c-0.2,1-0.6,2-1,2.9l-2.8,6.9c-1,2.6-2,4.9-2.8,6.9c-0.3,1-0.7,1.9-1.2,2.9c0.1-1,0.4-2,0.8-3
		c0.6-1.8,1.5-4.3,2.6-7s2.2-5.1,3-6.9C104.1,410.3,104.5,409.4,105.1,408.5z"/>
	<path class="st4" d="M77.5,287.5c0,0-15.5-8.1-15.8-21.7c0-0.3,0.2-0.6,0.5-0.6c0.1,0,0.3,0,0.4,0.1
		C64.8,266.9,71.2,272.4,77.5,287.5z"/>
	<path class="st1" d="M64.9,270.5c0.7,0.7,1.4,1.6,1.9,2.4l4.4,6l4.4,6c0.7,0.8,1.3,1.6,1.8,2.5c-0.8-0.7-1.5-1.4-2.1-2.3
		c-1.2-1.5-2.9-3.6-4.6-5.9s-3.2-4.6-4.2-6.2C65.8,272.3,65.3,271.4,64.9,270.5z"/>
	<path class="st4" d="M94.1,323.4c0,0-16-7.1-17.1-20.6c0-0.3,0.2-0.6,0.5-0.6c0.1,0,0.2,0,0.4,0.1C80.3,303.6,87,308.7,94.1,323.4z
		"/>
	<path class="st1" d="M80.5,307.2c0.8,0.7,1.5,1.5,2.1,2.3l4.7,5.8l4.8,5.8c0.7,0.7,1.4,1.6,1.9,2.4c-0.8-0.6-1.6-1.3-2.3-2.1
		c-1.3-1.4-3.1-3.4-4.9-5.6s-3.5-4.4-4.6-5.9C81.6,309,81,308.1,80.5,307.2z"/>
	<path class="st4" d="M84.9,363.4c0,0-11-13.6-5.8-26.2c0.1-0.3,0.5-0.4,0.8-0.3c0.1,0,0.2,0.1,0.2,0.2
		C81.6,339.5,85.3,347.1,84.9,363.4z"/>
	<path class="st1" d="M80.2,342.8c0.4,1,0.6,2,0.8,3c0.5,2.1,1,4.6,1.6,7.3s1.1,5.2,1.6,7.3c0.3,1,0.5,2,0.6,3
		c-0.5-0.9-0.8-1.9-1.1-2.9c-0.5-1.8-1.2-4.4-1.8-7.3s-1.1-5.5-1.4-7.4C80.3,344.8,80.2,343.8,80.2,342.8z"/>
	<path class="st4" d="M95.8,410.5c0,0-15.9-7.4-16.8-20.9c0-0.3,0.2-0.6,0.5-0.6c0.1,0,0.2,0,0.3,0.1
		C82.3,390.5,88.9,395.8,95.8,410.5z"/>
	<path class="st1" d="M82.5,394.1c0.7,0.7,1.4,1.5,2,2.3l4.6,5.9l4.7,5.8c0.7,0.8,1.3,1.6,1.9,2.5c-0.8-0.6-1.6-1.3-2.2-2.2
		c-1.3-1.4-3-3.4-4.8-5.7s-3.4-4.4-4.5-6C83.5,395.9,82.9,395,82.5,394.1z"/>
	<path class="st1" d="M127.4,341.7c0,0.1,0,0.3,0,0.4c0,0.3,0,0.7,0,1.1c-0.1,1.1-0.1,2.5-0.2,4.2c-0.2,3.7-0.5,8.9-0.8,15.2l0,0
		l0,0c-1.2,6.4-4.4,13.4-8.7,20.2c-3.2,5-6.5,9.6-9.4,13.8c-2.6,3.7-4.9,7.6-7,11.6c-1.4,2.7-2.5,5.6-3.3,8.5
		c-0.3,1-0.5,1.9-0.6,2.4c-0.1,0.3-0.1,0.6-0.2,0.8c0-0.3,0-0.6,0.1-0.9c0.1-0.6,0.2-1.4,0.5-2.5c0.7-3,1.8-5.9,3.1-8.7
		c2-4.1,4.4-8,7-11.8c2.9-4.3,6.2-8.9,9.3-13.9c4.3-6.8,7.5-13.7,8.7-19.9l0,0c0.4-6.2,0.8-11.4,1.1-15.1c0.1-1.8,0.2-3.2,0.3-4.2
		c0-0.4,0.1-0.8,0.1-1.1S127.4,341.7,127.4,341.7z"/>
	<path class="st4" d="M118,381.5c0,0,6.7-16.2-1.7-26.8c-0.2-0.2-0.6-0.3-0.8-0.1c-0.1,0.1-0.2,0.2-0.2,0.3
		C114.5,357.6,113.1,366,118,381.5z"/>
	<path class="st1" d="M116.7,360.4c0.3,1,0.5,2,0.5,3.1c0.2,1.9,0.5,4.5,0.7,7.5s0.3,5.6,0.3,7.5c0.1,1,0,2.1-0.2,3.1
		c-0.2-1-0.3-2.1-0.3-3.1c-0.2-2.1-0.3-4.7-0.5-7.5s-0.4-5.3-0.5-7.5C116.7,362.4,116.7,361.4,116.7,360.4z"/>
	<g class="st10">
		<path d="M118,381.5c0,0,6.7-16.2-1.7-26.8c-0.2-0.2-0.6-0.3-0.8-0.1c-0.1,0.1-0.2,0.2-0.2,0.3C114.5,357.6,113.1,366,118,381.5z"
			/>
	</g>
	<path class="st4" d="M97.2,420.5c0,0,5.4-16.7-3.9-26.5c-0.2-0.2-0.6-0.3-0.8,0c-0.1,0.1-0.2,0.2-0.2,0.3
		C91.7,397,91,405.4,97.2,420.5z"/>
	<path class="st1" d="M94.2,399.5c0.4,1,0.6,2,0.8,3c0.4,1.9,0.9,4.5,1.3,7.4s0.8,5.5,0.9,7.4c0.1,1,0.2,2.1,0.1,3.1
		c-0.3-1-0.5-2-0.5-3c-0.3-2.1-0.7-4.6-1.1-7.4s-0.8-5.2-1.1-7.4C94.3,401.6,94.2,400.5,94.2,399.5z"/>
	<g class="st10">
		<path d="M97.2,420.5c0,0,5.4-16.7-3.9-26.5c-0.2-0.2-0.6-0.3-0.8,0c-0.1,0.1-0.2,0.2-0.2,0.3C91.7,397,91,405.4,97.2,420.5z"/>
	</g>
	<path class="st4" d="M126.5,361.7c0,0,14.3-10,12.9-23.5c0-0.3-0.3-0.6-0.6-0.6c-0.1,0-0.3,0.1-0.4,0.2
		C136.4,339.7,130.7,346,126.5,361.7z"/>
	<g class="st10">
		<path d="M126.5,361.7c0,0,14.3-10,12.9-23.5c0-0.3-0.3-0.6-0.6-0.6c-0.1,0-0.3,0.1-0.4,0.2C136.4,339.7,130.7,346,126.5,361.7z"/>
	</g>
	<path class="st1" d="M136.8,343.2c-0.3,1-0.7,2-1.2,2.9c-0.8,1.7-2,4.1-3.4,6.7s-2.7,4.9-3.8,6.5c-0.5,0.9-1.1,1.8-1.8,2.5
		c0.4-1,0.9-1.9,1.4-2.8l3.6-6.5l3.6-6.6C135.7,345,136.2,344.1,136.8,343.2z"/>
	<path class="st4" d="M102.9,404c0,0,17.3-2.7,21.9-15.4c0.1-0.3,0-0.6-0.3-0.8c-0.1,0-0.3-0.1-0.4,0
		C121.5,388.5,113.7,391.7,102.9,404z"/>
	<g class="st10">
		<path d="M102.9,404c0,0,17.3-2.7,21.9-15.4c0.1-0.3,0-0.6-0.3-0.8c-0.1,0-0.3-0.1-0.4,0C121.5,388.5,113.7,391.7,102.9,404z"/>
	</g>
	<path class="st1" d="M120.3,391.9c-0.7,0.8-1.5,1.5-2.3,2c-1.5,1.2-3.6,2.8-6,4.5s-4.6,3.2-6.2,4.2c-0.9,0.6-1.8,1.1-2.8,1.5
		c0.8-0.7,1.6-1.3,2.5-1.8l6.1-4.3l6.1-4.3C118.5,392.9,119.4,392.4,120.3,391.9z"/>
	<polygon class="st2" points="82.5,435.8 87.4,468.4 107.2,468.3 113.9,435.8 	"/>
	<path class="st1" d="M111,448.4c0,0,0,0-0.2,0.1c-0.2,0.1-0.3,0.2-0.5,0.3c-0.7,0.3-1.4,0.6-2.2,0.7c-1.2,0.2-2.5,0-3.7-0.3
		c-1.6-0.5-3-1.5-3.9-2.9c-0.5-0.8-0.9-1.7-0.9-2.7c-0.1-1.1,0.4-2.2,1.3-2.8c1.1-0.5,2.3-0.4,3.3,0.3c1,0.7,1.7,1.8,1.9,3
		c0.3,1.2,0.3,2.4,0.2,3.7c-0.1,1.3-0.3,2.6-0.8,3.8c-0.5,1.3-1.3,2.4-2.3,3.3c-1.1,0.9-2.4,1.5-3.8,1.6c-1.4,0-2.8-0.4-4-1.1
		c-1.1-0.7-2.2-1.6-3-2.7c-0.9-1-1.4-2.3-1.5-3.6c-0.1-1.3,0.4-2.6,1.4-3.4c1-0.8,2.4-0.9,3.5-0.2c1,0.5,1.8,1.5,2,2.7
		c0.3,2-0.6,4-2.4,5.1c-1.5,0.8-3.2,1-4.8,0.7c-1.2-0.3-2.4-0.7-3.4-1.3c-0.7-0.4-1.3-0.8-1.9-1.3c-0.2-0.1-0.4-0.3-0.6-0.5
		c0.2,0.1,0.5,0.3,0.7,0.4c0.4,0.3,1.1,0.7,2,1.2c1,0.6,2.2,1,3.4,1.2c1.6,0.3,3.2,0,4.5-0.7c1.6-1,2.5-2.8,2.2-4.7
		c-0.2-1-0.9-1.9-1.8-2.3c-0.9-0.6-2.1-0.5-3,0.2c-0.8,0.8-1.3,1.9-1.2,3c0.1,1.2,0.6,2.3,1.4,3.3c0.8,1,1.7,1.9,2.8,2.5
		c1.1,0.7,2.4,1.1,3.7,1.1c1.3-0.1,2.5-0.6,3.5-1.5c1-0.8,1.7-1.9,2.2-3.1c0.4-1.2,0.7-2.4,0.8-3.6c0.1-1.2,0-2.4-0.2-3.5
		c-0.2-1.1-0.8-2.1-1.7-2.7c-0.8-0.6-1.9-0.7-2.8-0.3c-0.8,0.5-1.2,1.4-1.2,2.4c0,0.9,0.3,1.8,0.8,2.5c0.9,1.3,2.2,2.3,3.7,2.8
		c1.1,0.4,2.3,0.5,3.5,0.4C109.1,449.1,110.1,448.8,111,448.4z"/>
	<path class="st4" d="M622.5,441c-7.8-4.5-12-15.1-12.3-23.8s3.3-17.7,10.4-22.7c7.5-5.2,18.1-5.1,25.8-0.2s12.2,14.2,11.8,23.3
		c-0.5,9.3-5.2,17.8-12.7,23.2"/>
	<path class="st12" d="M635.1,441.8c-0.1-0.7-0.2-1.3-0.1-2c0-1.4-0.1-3.2-0.2-5.4c-0.1-4.6-0.3-10.9-0.6-17.8s-0.7-13.2-1-17.8
		c-0.1-2.2-0.2-4-0.3-5.4c-0.1-0.7-0.1-1.3,0-2c0.2,0.7,0.3,1.3,0.3,2c0.2,1.3,0.3,3.1,0.6,5.4c0.4,4.5,0.9,10.8,1.2,17.8
		s0.4,13.3,0.4,17.8c0,2.3,0,4.1-0.1,5.4C635.2,440.5,635.2,441.2,635.1,441.8z"/>
	<path class="st1" d="M612.5,415.2c0,0.2-1.3,0.3-2.8,0.1s-2.8-0.4-2.7-0.6s1.3-0.3,2.8-0.1S612.5,415,612.5,415.2z"/>
	<path class="st1" d="M612.9,407.5c-0.1,0.2-1.2-0.1-2.4-0.7s-2.2-1.1-2.1-1.3s1.2,0.1,2.4,0.7S613,407.3,612.9,407.5z"/>
	<path class="st1" d="M616.9,401.7c-0.1,0.2-1.3-0.4-2.6-1.5s-2.1-2.1-1.9-2.3s1.2,0.7,2.4,1.7S617,401.5,616.9,401.7z"/>
	<path class="st1" d="M621,396.3c-0.2,0.1-0.8-0.8-1.3-2s-0.8-2.2-0.6-2.3s0.8,0.8,1.3,2S621.1,396.2,621,396.3z"/>
	<path class="st1" d="M627.3,392.4c-0.2,0.1-0.8-0.9-1.2-2.2s-0.5-2.5-0.2-2.5s0.5,1,1,2.3S627.5,392.3,627.3,392.4z"/>
	<path class="st1" d="M637.8,388.1c0.2,0.1,0.1,0.9-0.3,1.8s-0.8,1.7-1,1.6s-0.1-0.9,0.3-1.8S637.6,388,637.8,388.1z"/>
	<path class="st1" d="M645.6,391.4c0.1,0.1-0.4,0.8-1.1,1.5s-1.5,1.1-1.6,1s0.4-0.8,1.1-1.5S645.5,391.3,645.6,391.4z"/>
	<path class="st1" d="M652.5,395.9c0.1,0.2-0.5,0.8-1.4,1.4s-1.7,0.9-1.8,0.8s0.5-0.8,1.4-1.4S652.4,395.7,652.5,395.9z"/>
	<path class="st1" d="M657.3,402.5c0.1,0.2-0.9,0.8-2.2,1.3s-2.4,0.8-2.4,0.6s0.9-0.8,2.2-1.3S657.3,402.3,657.3,402.5z"/>
	<path class="st1" d="M659.3,409.7c0,0.2-1,0.5-2.2,0.6s-2.3,0.1-2.3-0.1s1-0.5,2.2-0.6S659.2,409.5,659.3,409.7z"/>
	<path class="st1" d="M660.3,418.6c-0.1,0.2-1.1-0.1-2.3-0.6s-2.1-1.1-2-1.3s1.1,0.1,2.3,0.6S660.3,418.4,660.3,418.6z"/>
	<path class="st1" d="M659.4,426.2c-0.1,0.2-1.4-0.1-2.8-1s-2.2-2-2.1-2.1s1.2,0.6,2.5,1.5S659.5,426,659.4,426.2z"/>
	<path class="st1" d="M655.4,433.1c-0.1,0.2-1.2-0.5-2.2-1.5s-1.5-2.2-1.4-2.3s1,0.8,1.9,1.8S655.5,433,655.4,433.1z"/>
	<path class="st1" d="M617.7,434c0.1,0.2-1,0.9-2.5,1.7s-2.7,1.2-2.8,1s1-0.9,2.5-1.7S617.6,433.8,617.7,434z"/>
	<path class="st1" d="M614.3,427.7c0.1,0.2-0.8,0.8-2,1.3s-2.2,0.8-2.3,0.6s0.8-0.8,2-1.3S614.2,427.5,614.3,427.7z"/>
	<path class="st1" d="M611.8,422.1c0,0.2-1.1,0.5-2.4,0.7s-2.5,0.2-2.5,0s1.1-0.5,2.4-0.7S611.7,421.9,611.8,422.1z"/>
	<path class="st1" d="M620.1,419c0.1,0.2-1,0.7-2.4,0.9s-2.6-0.1-2.5-0.3s1.1-0.3,2.5-0.4S620,418.8,620.1,419z"/>
	<path class="st1" d="M627,412.2c0.1,0.2-0.8,0.6-1.9,0.7s-2-0.1-2-0.3s0.9-0.3,2-0.4S626.9,412,627,412.2z"/>
	<path class="st1" d="M628.3,406.7c-0.1,0.2-1,0-2-0.3s-1.9-0.8-1.8-1s1,0,2,0.3S628.3,406.5,628.3,406.7z"/>
	<path class="st1" d="M630.8,401.1c-0.1,0.1-0.8-0.3-1.2-1.1s-0.5-1.5-0.3-1.6s0.5,0.5,0.9,1.2S631,401,630.8,401.1z"/>
	<path class="st1" d="M627.8,423.9c0,0.2-0.7,0.6-1.8,0.8c-0.5,0.1-1,0.2-1.5,0.2l-0.2-0.4c0.3,0,0.4,0,0.5,0s-0.1,0.2-0.3,0.4
		l-0.1-0.4c0.5-0.2,0.9-0.4,1.4-0.5C626.8,423.7,627.7,423.7,627.8,423.9z"/>
	<path class="st1" d="M629.2,433.6c0.1,0.2-0.9,0.8-2.2,1.3s-2.5,0.8-2.5,0.6s0.9-0.8,2.3-1.3S629.1,433.4,629.2,433.6z"/>
	<path class="st1" d="M621.4,429.3c0.1,0.2-0.6,0.6-1.5,0.9s-1.7,0.4-1.7,0.2s0.6-0.6,1.5-0.9S621.3,429.1,621.4,429.3z"/>
	<path class="st1" d="M622,409.5c0,0.2-1.2,0.1-2.6-0.4s-2.3-1.1-2.2-1.3s1.2,0.1,2.5,0.6S622,409.3,622,409.5z"/>
	<path class="st1" d="M640.8,407.3c0.1,0.2-0.5,0.8-1.5,1.4s-1.8,1-1.9,0.8s0.5-0.8,1.5-1.4S640.7,407.1,640.8,407.3z"/>
	<path class="st1" d="M641.8,417.1c0,0.2-0.7,0.5-1.5,0.7s-1.7,0.2-1.7,0s0.7-0.5,1.5-0.7S641.8,416.9,641.8,417.1z"/>
	<path class="st1" d="M643,428.1c-0.1,0.2-1.1-0.1-2.2-0.6s-2-1.1-1.9-1.3s1.1,0.1,2.2,0.6S643.1,427.9,643,428.1z"/>
	<path class="st1" d="M640.5,438.8c-0.2,0.1-0.8-0.4-1.4-1.2s-1-1.5-0.9-1.6s0.8,0.4,1.5,1.2S640.7,438.7,640.5,438.8z"/>
	<path class="st1" d="M640,400.1c0.1,0.2-0.3,0.7-1,1.1s-1.4,0.4-1.5,0.2s0.5-0.5,1.1-0.9S639.9,399.9,640,400.1z"/>
	<path class="st1" d="M649.2,410c0.1,0.2-0.8,0.7-2,0.8s-2.1,0-2.1-0.2s0.9-0.3,2-0.5S649.2,409.8,649.2,410z"/>
	<path class="st1" d="M647.4,401.1c0.1,0.2-0.8,0.8-2,1.2s-2.2,0.4-2.3,0.2s0.9-0.5,2.1-0.9S647.3,400.9,647.4,401.1z"/>
	<path class="st1" d="M651.3,423.7c0,0.2-1.5,0.3-3.2,0s-3.1-0.9-3-1.1s1.4,0.1,3.1,0.4S651.3,423.5,651.3,423.7z"/>
	<path class="st1" d="M647.8,436.6c-0.1,0.2-1.2-0.5-2.3-1.5s-1.7-2.1-1.5-2.3s1,0.7,2.1,1.7S648,436.4,647.8,436.6z"/>
	<path class="st12" d="M632.7,390.6c-2.4,1.4-4.5,3.1-6.5,5.1c-4.5,4.9-7.3,11.1-8,17.7c-0.3,3.6-0.2,7.3,0.5,10.9
		c0.5,2.9,1.2,5.9,2,8.7c0.7,2.5,1.3,4.4,1.8,5.8c0.3,0.7,0.5,1.4,0.6,2.1c-0.4-0.7-0.7-1.3-0.9-2c-0.5-1.3-1.2-3.3-2-5.7
		c-0.9-2.9-1.7-5.8-2.2-8.8c-0.7-3.6-0.9-7.4-0.5-11.1c0.7-6.8,3.7-13.1,8.4-18c1.4-1.5,3-2.7,4.8-3.8c0.5-0.3,1-0.5,1.5-0.8
		C632.5,390.7,632.7,390.6,632.7,390.6z"/>
	<path class="st12" d="M642.8,441.5c1.2-2.6,2.3-5.2,3.3-7.9c2.2-6.5,2.9-13.5,2-20.3c-0.5-3.7-1.6-7.4-3.1-10.8
		c-1.3-2.8-3.1-5.3-5.3-7.4c-1.6-1.4-3.3-2.5-5.2-3.3c-1.4-0.6-2.2-0.7-2.2-0.8s0.2,0,0.6,0c0.6,0.1,1.1,0.3,1.7,0.5
		c2,0.7,3.8,1.8,5.5,3.2c2.3,2.1,4.2,4.7,5.6,7.5c1.6,3.5,2.7,7.2,3.2,11c0.9,6.9,0.2,14-2.2,20.6c-0.4,1.3-1,2.4-1.3,3.3
		s-0.9,1.8-1.2,2.4C643.6,440.2,643.2,440.8,642.8,441.5z"/>
	<polygon class="st1" points="614.3,439.7 654.8,439.7 655.1,447.8 614.3,447.8 	"/>
	<polygon class="st1" points="617.7,443.8 620.1,468.5 649.7,468.5 652.1,444.1 	"/>
	<path class="st2" d="M655.1,447.9c0,0.2-9.1,0.4-20.4,0.4s-20.4-0.2-20.4-0.4s9.1-0.4,20.4-0.4S655.1,447.7,655.1,447.9z"/>
	<path class="st2" d="M650.9,455.5c-0.2,0.6-0.5,1.1-0.9,1.5c-0.9,1.3-2,2.6-3.1,3.7l-0.2,0.2l-0.2-0.2c-2.4-2.6-5.1-4.9-7.9-7h0.4
		l-3.5,3.1l-4.2,3.6l-0.2,0.2l-0.2-0.2l-6.8-5.7h0.4l-3.5,4.3c-0.4,0.6-0.9,1.1-1.4,1.5c0.3-0.6,0.7-1.2,1.1-1.7l3.3-4.4l0.2-0.2
		l0.2,0.2l6.9,5.6h-0.5l4.2-3.6l3.5-3.1l0.2-0.2l0.2,0.2c2.9,2.1,5.5,4.5,7.9,7.2h-0.4C648.2,458.9,649.6,457.2,650.9,455.5z"/>
</g>
</svg>
